<?xml version="1.0" standalone="no"?>
<!DOCTYPE svg PUBLIC "-//W3C//DTD SVG 1.1//EN" "http://www.w3.org/Graphics/SVG/1.1/DTD/svg11.dtd" >
<svg xmlns="http://www.w3.org/2000/svg">
  <metadata>Created by iconfont</metadata>
  <defs>
  <font id="iconfont" horiz-adv-x="1024">
    <font-face
      font-family="iconfont"
      font-weight="400"
      font-stretch="normal"
      units-per-em="1024"
      ascent="896"
      descent="-128"
    />
      <missing-glyph />
      
      <glyph glyph-name="jinzhi" unicode="&#59013;" d="M512 832C264.6 832 64 631.4 64 384s200.6-448 448-448 448 200.6 448 448S759.4 832 512 832z m392-448c0-98-36.4-187.5-96.1-256.3L255.7 679.9C324.5 739.6 414 776 512 776c216.1 0 392-175.9 392-392z m-784 0c0 98 36.4 187.5 96.1 256.3l552.2-552.2C699.5 28.4 610-8 512-8c-216.1 0-392 175.9-392 392z"  horiz-adv-x="1024" />
      
      <glyph glyph-name="jinzhi1" unicode="&#59014;" d="M763.776-72.96H261.504C147.456-72.96 55.04 19.456 55.04 133.504V635.776C55.04 749.824 147.456 842.24 261.504 842.24h502.272C877.824 842.24 970.24 749.824 970.24 635.776v-502.272c0-114.048-92.416-206.464-206.464-206.464zM512.64 643.2c-142.592 0-258.56-115.968-258.56-258.56s115.968-258.56 258.56-258.56 258.56 115.968 258.56 258.56-115.968 258.56-258.56 258.56z m-194.688-258.56c0 42.24 13.568 81.152 36.48 113.024l271.36-271.36c-31.872-22.912-70.912-36.48-113.024-36.48-107.52 0-194.816 87.424-194.816 194.816z m352.896-113.152l-271.36 271.36c31.872 22.912 70.912 36.48 113.024 36.48 107.392 0 194.688-87.424 194.688-194.688 0.128-42.24-13.44-81.152-36.352-113.152z"  horiz-adv-x="1024" />
      
      <glyph glyph-name="qiyong" unicode="&#59015;" d="M496.426667 239.146667l237.397333 326.826666a21.333333 21.333333 0 0 0 34.56-25.088l-250.794667-345.173333a21.248 21.248 0 0 0-13.44-8.490667 21.333333 21.333333 0 0 0-18.56 5.077334l-183.765333 156.842666a21.333333 21.333333 0 1 0 28.586667 31.701334l165.973333-141.696zM512-85.333333C252.8-85.333333 42.666667 124.8 42.666667 384S252.8 853.333333 512 853.333333s469.333333-210.133333 469.333333-469.333333-210.133333-469.333333-469.333333-469.333333z m0 39.125333c237.610667 0 430.208 192.597333 430.208 430.208S749.653333 814.208 512 814.208 81.792 621.653333 81.792 384 274.346667-46.208 512-46.208z"  horiz-adv-x="1024" />
      
      <glyph glyph-name="baocun" unicode="&#58988;" d="M382.4 20 7.4 395 43.1 430.6 380.9 92.8 983.6 746.3 1020.7 712.1Z"  horiz-adv-x="1024" />
      
      <glyph glyph-name="yanzhengyanzhengma" unicode="&#58991;" d="M943.1 724c-2.4 0.2-245.1 25.3-413.8 147.8-5.1 3.7-11 5.6-17.3 5.6-6.2 0-12.2-1.9-17.3-5.6C326.9 750 83.3 724.2 80.9 724c-15.2-1.4-26.6-14.1-26.6-29.3 0-6.7 0.6-165.8 54.8-344.4 32.1-105.8 76.4-196.4 131.9-269.2 70.3-92.3 158.5-156 262-189.2 2.9-0.9 5.9-1.4 9-1.4s6.1 0.5 8.9 1.4c103.6 33.2 191.7 96.8 262 189.2 55.4 72.7 99.8 163.2 131.9 269.2 54.1 178.6 54.8 337.7 54.8 344.4C969.7 709.9 958.3 722.5 943.1 724zM910.1 668.8l-0.1-1.6c-2.9-58.1-13.4-174.4-51.4-299.9-66.7-220.1-183.1-360.1-346-416.1L512-49l-0.6 0.2C349 7.1 232.7 146.6 165.8 365.9c-39.8 130.5-49.4 254.2-51.8 301.4l-0.1 1.6 1.5 0.2c70.6 10.3 250.5 44.8 395.5 142.4l0.9 0.7 1-0.7C658 713.9 837.9 679.4 908.5 669L910.1 668.8zM641.8 545 467 315.7l-89 76.1c-5.3 4.5-12.1 7-19.1 7-8.6 0-16.8-3.7-22.4-10.3-10.5-12.3-9.1-31 3.3-41.5l112.7-96.4c5.2-4.4 12.4-7 19.6-7 0.9 0 1.8 0 2.7 0.1 8 0.8 15.4 5 20.3 11.4l193.7 254c4.8 6.3 6.8 14 5.7 21.8-1 7.8-5.1 14.7-11.3 19.5C670.1 560.4 651.6 557.9 641.8 545z"  horiz-adv-x="1024" />
      
      <glyph glyph-name="yanzhengma" unicode="&#59019;" d="M514.389-109.609c-269.967 0-489.595 219.642-489.595 489.595s219.628 489.609 489.595 489.609 489.595-219.642 489.595-489.595-219.628-489.609-489.595-489.609zM514.389 828.635c-247.385 0-448.635-201.25-448.635-448.635s201.264-448.635 448.635-448.635 448.635 201.25 448.635 448.635-201.25 448.635-448.635 448.635zM245.993 274.432c41.014 8.138 86.112 18.036 135.264 29.71-0.355-14.145-0.177-26.692 0.532-37.655-40.318-8.493-82.93-18.924-127.836-31.294l-7.959 39.239zM324.499 535.934l-12.206-145.872h53.575l13.79 178.763h-120.409v36.073h160.727l-16.438-214.821h33.423c-2.471-74.615-4.779-135.973-6.895-184.061-1.065-53.754-24.399-80.623-70.014-80.623-19.101 0-41.547 0.532-67.365 1.598-1.775 13.079-4.068 27.047-6.895 41.902 25.463-3.181 48.087-4.779 67.898-4.779 24.753 0 37.834 15.033 39.253 45.084 2.116 38.898 3.891 87.163 5.311 144.807h-127.303l16.971 181.945h36.577zM633.747 634.593l-10.076-16.971c42.789-76.035 95.833-131.373 159.13-166.025-11.318-14.145-20.685-26.528-28.112-37.137-62.231 45.971-112.981 101.308-152.235 166.025-36.073-64.006-86.466-121.474-151.17-172.387-6.363 9.188-15.21 20.33-26.528 33.423 70.369 48.797 124.3 113.158 161.778 193.086h47.213zM441.194 177.889h191.488c25.463 62.942 48.087 128.723 67.898 197.318l40.318-12.725c-20.862-63.297-42.967-124.832-66.301-184.593h93.361v-36.605h-326.765v36.605zM468.241 347.628l37.137 11.674c17.326-50.217 31.826-94.945 43.5-134.198l-39.253-13.258c-11.674 45.261-25.463 90.522-41.383 135.782zM495.302 439.392h218.535v-36.605h-218.535v36.605zM559.473 371.507l37.655 10.076c14.854-53.043 27.047-99.369 36.605-138.977l-38.721-11.141c-10.254 48.797-22.091 95.477-35.539 140.043z"  horiz-adv-x="1024" />
      
      <glyph glyph-name="duihao" unicode="&#58992;" d="M63.222927 384c0 0 231.767598-189.584869 254.790964-350.823134 0 0 303.906591 497.491565 641.581264 542.003338 0 0-102.837156 74.943876-69.070098 193.395662 0 0-187.255825-18.684548-540.279067-566.637388L184.79375 482.787934 63.222927 384z"  horiz-adv-x="1024" />
      
      <glyph glyph-name="mima" unicode="&#58997;" d="M927.311379 799.304727c-126.782521 126.763079-332.334038 126.763079-459.116559 0-99.954503-99.955526-121.081683-248.851695-63.426565-369.513822L1.628592 26.686035l7.52437-145.539724 145.501862-7.52437 58.506509 58.511625c-0.080841 0.079818-76.478835 76.54228-51.016931 102.038978 25.477254 25.460882 101.845573-50.825572 102.035908-51.015907L315.199287 34.180729c-0.284479 0.283456-76.476789 76.555583-51.014884 102.000092 25.474185 25.51 102.006232-51.003628 102.006232-51.003628l-4.264117-4.26514 55.273884 55.279001c-0.444115 0.445138-76.44609 76.577073-51.009767 102.012372 25.51 25.511024 102.005208-51.002604 102.005208-51.002604L449.642279 168.633954l108.149139 108.154255c120.67236-57.642838 269.571598-36.514635 369.519961 63.435775C1054.057061 466.990133 1054.057061 672.523229 927.311379 799.304727zM774.247284 493.252263c-42.247196-42.266639-110.776989-42.266639-152.989393 0-42.284035 42.249243-42.284035 110.759593 0 153.026232 42.212404 42.24822 110.742197 42.24822 152.989393 0C816.53439 604.011856 816.53439 535.501506 774.247284 493.252263z"  horiz-adv-x="1024" />
      
      <glyph glyph-name="mima1" unicode="&#58998;" d="M916.210526-128 107.789474-128C78.012632-128 53.894737-103.855158 53.894737-74.105263L53.894737 410.947368C53.894737 440.724211 78.012632 464.842105 107.789474 464.842105L188.631579 464.842105 188.631579 572.631579C188.631579 751.238737 333.419789 896 512 896 690.580211 896 835.368421 751.238737 835.368421 572.631579L835.368421 464.842105 916.210526 464.842105C945.987368 464.842105 970.105263 440.724211 970.105263 410.947368L970.105263-74.105263C970.105263-103.855158 945.987368-128 916.210526-128ZM781.473684 572.631579C781.473684 721.461895 660.830316 842.105263 512 842.105263 363.169684 842.105263 242.526316 721.461895 242.526316 572.631579L242.526316 464.842105 781.473684 464.842105 781.473684 572.631579ZM916.210526 410.947368 835.368421 410.947368 188.631579 410.947368 107.789474 410.947368 107.789474-74.105263 916.210526-74.105263 916.210526 410.947368ZM512 303.157895C526.874947 303.157895 538.947368 291.085474 538.947368 276.210526L538.947368 60.631579C538.947368 45.756632 526.874947 33.684211 512 33.684211 497.125053 33.684211 485.052632 45.756632 485.052632 60.631579L485.052632 276.210526C485.052632 291.085474 497.125053 303.157895 512 303.157895Z"  horiz-adv-x="1024" />
      
      <glyph glyph-name="duihao1" unicode="&#58999;" d="M512-64c-247.424 0-448 200.576-448 448 0 247.424 200.576 448 448 448 247.424 0 448-200.576 448-448C960 136.576 759.424-64 512-64L512-64zM512 732.416C319.552 732.416 163.584 576.448 163.584 384c0-192.448 155.968-348.48 348.416-348.48 192.448 0 348.416 156.032 348.416 348.416C860.416 576.32 704.448 732.416 512 732.416L512 732.416zM776 495.424l-316.8-316.8c-9.728-9.728-25.472-9.728-35.2 0l-176 176c-9.728 9.728-9.728 25.472 0 35.2l35.2 35.2c9.728 9.728 25.472 9.728 35.2 0L441.6 301.824l264 264c9.728 9.728 25.472 9.728 35.2 0l35.2-35.2C785.728 520.896 785.728 505.152 776 495.424L776 495.424z"  horiz-adv-x="1024" />
      
      <glyph glyph-name="duihao2" unicode="&#59000;" d="M382.727 129.642l-313.959 313.959c-8.217 8.212-8.217 21.534 0 29.746 8.207 8.217 21.54 8.217 29.746 0l284.211-284.211 547.315 547.32c8.217 8.217 21.529 8.217 29.746 0 8.217-8.212 8.217-21.534 0-29.746l-577.061-577.068z"  horiz-adv-x="1024" />
      
      <glyph glyph-name="denglu" unicode="&#59001;" d="M511.338 474.125l-221.281-238.02 64.44-60 110.79 119.221v-336.521h92.16v336.47l110.795-119.17 64.432 60zM882.262 809.197H141.739C63.463 809.197 0.007 745.741 0.007 667.465v-566.929c0-78.276 63.456-141.732 141.732-141.732h157.663v80H141.739c-34.039 0-61.732 27.693-61.732 61.732V667.464c0 34.04 27.693 61.732 61.732 61.732h740.522c34.04 0 61.732-27.693 61.732-61.732v-566.929c0-34.039-27.692-61.732-61.732-61.732H724.6v-80h157.662c78.276 0 141.732 63.456 141.732 141.732V667.464c0 78.277-63.456 141.733-141.732 141.733z"  horiz-adv-x="1024" />
      
      <glyph glyph-name="mima2" unicode="&#59003;" d="M780.8 455.253333v106.666667A250.453333 250.453333 0 0 1 512 810.666667a250.453333 250.453333 0 0 1-268.8-248.746667v-106.666667H128V-42.666667h768V455.253333h-115.2m-230.4-274.773333v-116.48h-76.8v116.48a69.973333 69.973333 0 0 0-38.4 61.44 73.813333 73.813333 0 0 0 76.8 70.826667 73.813333 73.813333 0 0 0 76.8-70.826667 69.973333 69.973333 0 0 0-38.4-61.44z m153.6 274.773333h-384V561.493333A174.506667 174.506667 0 0 0 512 739.413333a174.506667 174.506667 0 0 0 192-177.493333v-106.666667"  horiz-adv-x="1024" />
      
      <glyph glyph-name="baocun1" unicode="&#59004;" d="M1002.788571 697.782857L825.782857 874.788571a73.142857 73.142857 0 0 1-51.2 21.211429H73.142857a73.142857 73.142857 0 0 1-73.142857-73.142857v-877.714286a73.142857 73.142857 0 0 1 73.142857-73.142857h877.714286a73.142857 73.142857 0 0 1 73.142857 73.142857V646.582857a73.142857 73.142857 0 0 1-21.211429 51.2zM731.428571 522.24a65.097143 65.097143 0 0 0-65.097142-65.097143H211.382857A65.097143 65.097143 0 0 0 146.285714 522.24V684.617143A65.097143 65.097143 0 0 0 211.382857 749.714286h454.948572a65.097143 65.097143 0 0 0 65.097142-65.097143zM585.142857 676.571429h73.142857v-146.285715H585.142857z"  horiz-adv-x="1024" />
      
      <glyph glyph-name="yanzhengma1" unicode="&#59005;" d="M964.488 538.651c-4.886-70.287-4.001-141.573-15.954-210.638-20.436-118.087-85.131-211.523-181.248-282.803-66.926-49.632-134.379-98.542-201.627-147.744-30.01-21.956-60.986-23.348-89.619-2.313-76.064 55.874-153.24 110.382-227.13 169.024-94.745 75.195-153.822 174.919-163.748 295.15-9.22 111.697-5.526 224.52-5.772 336.852-0.056 24.462 15.402 43.942 39.332 51.668 127.702 41.235 255.465 82.312 383.843 121.367 16.21 4.933 37.126 0.844 54.17-4.477 118.446-36.983 236.472-75.302 354.56-113.421 32.716-10.561 48.404-32.302 48.547-66.604 0.2-48.583 0.051-97.166 0.051-145.748 1.535-0.103 3.065-0.21 4.595-0.313z m-840.91-1.622c0-37.51-0.604-75.036 0.107-112.536 2.564-135.136 57.599-245.743 162.06-329.84C351.91 41.386 422.869-5.892 490.884-56.9c20.4-15.299 36.871-14.966 57.087 0.277 63.805 48.112 129.089 94.259 192.878 142.386 100.865 76.106 162.588 176.398 170.698 303.302 5.863 91.7 2.604 183.99 3.3 276.024 0.184 24.667-12.367 38.405-35.93 45.886-111.763 35.469-223.076 72.36-334.983 107.363-14.46 4.523-32.685 5.05-47.032 0.578-112.767-35.156-224.899-72.344-337.501-108.023-24.924-7.895-36.155-22.912-35.899-48.537 0.42-41.777 0.118-83.555 0.077-125.328zM519.537 588.708c70.753 0.015 141.512 0.082 212.265-0.041 13.616-0.026 29.79 1.74 28.577-19.188-0.998-17.186-10.986-24.723-29.002-24.467-51.99 0.741-104.052-1.142-155.976 0.844-26.203 1.003-33.955-7.977-33.724-33.264 0.972-106.55 0.64-213.12 0.015-319.674-0.056-10.003-2.911-22.427-9.297-29.114-4.385-4.595-19.31-4.503-25.512-0.415-5.771 3.802-8.616 15.652-8.662 23.977-0.548 108.264-0.338 216.528-0.384 324.791-0.015 32.89-0.159 33.034-32.644 33.085-49.443 0.082-98.89 0.02-148.333 0.025-5.116 0-11.911-2.041-15.022 0.466-8.79 7.087-20.615 14.946-22.933 24.514-3.884 16.03 10.269 18.456 23.25 18.45 72.462-0.025 144.92-0.004 217.382 0.01z"  horiz-adv-x="1024" />
      
      <glyph glyph-name="yanzhengma2" unicode="&#59147;" d="M877.19 744.412L927 751.58v-481.433l-2.542-7.15a622.398 622.398 0 0 0-142.386-227.621l-0.182-0.185-0.183-0.183c-36.781-36.581-80.07-70.963-122.936-96.574C607.109-92.43 557.585-110 512.5-110c-45.088 0-94.592 17.534-146.202 48.35-42.884 25.605-86.18 60.003-123.018 96.671l-0.191 0.19-0.189 0.193A624.791 624.791 0 0 0 100.555 262.96L98 270.126V745.17l44.375-0.378c48.96-0.418 97.62 7.685 143.797 23.945l0.521 0.184 0.526 0.17a748.46 748.46 0 0 1 199.96 99.893L511.573 886.15l24.979-16.306a986.95 986.95 0 0 1 201.955-100.987c36.862-11.904 69.104-19.111 96.726-22.556 18.276-2.28 31.852-2.633 40.737-1.992 0.527 0.038 0.934 0.074 1.22 0.103z m-52.849-85.435c-33.369 4.162-71.286 12.66-113.692 26.402l-0.73 0.237-0.72 0.261a1074.982 1074.982 0 0 0-195.89 94.53 836.489 836.489 0 0 0-198.436-94.86A510.113 510.113 0 0 0 186 658.35V285.5a536.8 536.8 0 0 1 119.554-188.3C374.804 28.328 459.142-22 512.5-22c53.292 0 137.733 50.42 206.967 119.22A534.407 534.407 0 0 1 839 285.478v371.92c-4.676 0.42-9.563 0.944-14.659 1.58z m-354.355-342.84l197.99 197.99c17.183 17.182 45.043 17.182 62.226 0 17.183-17.184 17.183-45.043 0-62.226L469.986 191.686 310.887 350.785c-17.183 17.183-17.183 45.042 0 62.225s45.043 17.183 62.226 0l96.873-96.874z"  horiz-adv-x="1024" />
      
      <glyph glyph-name="baocun2" unicode="&#59153;" d="M72.902194 879.704086h800.074322a23.563011 23.563011 0 0 0 18.773333-8.874667l117.561807-142.974623c3.721634-4.525419 5.527398-9.568344 5.527398-15.437076v-764.080172c0-40.145204-32.745978-72.902194-72.902194-72.902193H72.913204C32.745978-124.564645 0-91.807656 0-51.662452V806.801892C0 846.958108 32.745978 879.704086 72.902194 879.704086z m37.854967-516.217118a4.866753 4.866753 0 0 1-4.855742-4.877764v-363.795269c0-2.664602 2.180129-4.844731 4.855742-4.844731h795.449807a4.844731 4.844731 0 0 1 4.855742 4.844731v363.795269a4.877763 4.877763 0 0 1-4.855742 4.877764H110.757161zM228.616258 771.35828a4.877763 4.877763 0 0 1-4.855742-4.866753V541.894194c0-2.686624 2.180129-4.866753 4.855742-4.866753h557.606538a4.866753 4.866753 0 0 1 4.855742 4.866753V766.491527a4.877763 4.877763 0 0 1-4.855742 4.866753H228.616258z"  horiz-adv-x="1024" />
      
      <glyph glyph-name="tuichudenglu" unicode="&#59006;" d="M512 0c-215.3 0-390.4 175.1-390.4 390.4 0 137.1 71 261.8 189.8 333.4 17.7 10.6 40.9 5 51.6-12.8 10.7-17.8 5.1-40.9-12.8-51.7-96.1-57.9-153.4-158.5-153.4-269 0-173.7 141.4-315.1 315.1-315.1S827 216.6 827 390.3c0 110.5-57.3 211.1-153.4 269-17.8 10.7-23.5 33.8-12.9 51.7 10.9 17.8 34 23.4 51.7 12.8 118.8-71.6 189.8-196.3 189.8-333.4C902.4 175.1 727.3 0 512 0zM512 372.1c-20.8 0-37.6 16.8-37.6 37.6V730.4c0 20.8 16.8 37.6 37.6 37.6s37.6-16.8 37.6-37.6v-320.6c0.1-20.8-16.8-37.7-37.6-37.7z"  horiz-adv-x="1024" />
      
      <glyph glyph-name="denglu1" unicode="&#59069;" d="M521.7 814c-152.5 0.4-286.7-78.5-363.4-197.7-3.4-5.3 0.4-12.3 6.7-12.3h70.3c4.8 0 9.3 2.1 12.3 5.8 7 8.5 14.5 16.7 22.4 24.5 32.6 32.5 70.5 58.1 112.7 75.9 43.6 18.4 90 27.8 137.9 27.8 47.9 0 94.3-9.3 137.9-27.8 42.2-17.8 80.1-43.4 112.7-75.9 32.6-32.5 58.1-70.4 76-112.5C865.7 478.2 875 431.9 875 384c0-47.9-9.4-94.2-27.8-137.8-17.8-42.1-43.4-80-76-112.5s-70.5-58.1-112.7-75.9c-43.6-18.4-90-27.8-137.9-27.8-47.9 0-94.3 9.4-137.9 27.8-42.2 17.8-80.1 43.4-112.7 75.9-7.9 7.9-15.3 16.1-22.4 24.5-3 3.7-7.6 5.8-12.3 5.8H165c-6.3 0-10.2-7-6.7-12.3C234.9 32.8 368.5-46 520.6-46c236.2 0 428 190.1 430.4 425.6C953.4 618.9 761.3 813.4 521.7 814zM395.025 272v76h-314c-4.4 0-8 3.6-8 8v56c0 4.4 3.6 8 8 8h314v76c0 6.7 7.8 10.5 13 6.3l141.9-112c4.1-3.2 4.1-9.4 0-12.6l-141.9-112c-5.2-4.1-13-0.4-13 6.3z"  horiz-adv-x="1024" />
      
      <glyph glyph-name="denglupeizhi" unicode="&#59009;" d="M802.816 752.64H315.392c-53.248 0-98.304-43.008-98.304-98.304v-49.152H266.24v49.152c0 26.624 22.528 49.152 49.152 49.152h487.424c26.624 0 49.152-22.528 49.152-49.152V117.76c0-26.624-22.528-49.152-49.152-49.152H315.392c-26.624 0-49.152 22.528-49.152 49.152v49.152h-49.152V117.76c0-53.248 43.008-98.304 98.304-98.304h487.424c53.248 0 98.304 43.008 98.304 98.304V654.336C901.12 709.632 856.064 752.64 802.816 752.64zM585.728 412.672l-129.024 129.024c-6.144 6.144-8.192 14.336-6.144 24.576 2.048 8.192 8.192 14.336 16.384 16.384 8.192 2.048 18.432 0 24.576-6.144l172.032-172.032c10.24-10.24 10.24-24.576 0-34.816L491.52 195.584c-10.24-10.24-24.576-8.192-34.816 0s-10.24 24.576 0 34.816l133.12 133.12H145.408c-14.336 0-24.576 10.24-24.576 24.576s10.24 24.576 24.576 24.576h440.32z m0 0M243.712 654.336c16.384 0 24.576-8.192 24.576-24.576v-49.152c0-16.384-8.192-24.576-24.576-24.576-16.384 0-24.576 8.192-24.576 24.576V629.76c0 16.384 8.192 24.576 24.576 24.576z m0 0M243.712 216.064c16.384 0 24.576-8.192 24.576-24.576v-49.152c0-16.384-8.192-24.576-24.576-24.576-16.384 0-24.576 8.192-24.576 24.576v49.152c0 18.432 8.192 24.576 24.576 24.576z m0 0"  horiz-adv-x="1024" />
      
      <glyph glyph-name="baocun3" unicode="&#59010;" d="M508.9 294.1h-0.3c-7.7 0.1-14.9 3.7-19.5 9.8L402.4 417c-8.4 10.9-6.3 26.6 4.6 35 10.9 8.4 26.6 6.3 35-4.6l67.4-87.8 168.8 209.7c8.7 10.7 24.4 12.4 35.1 3.8 10.7-8.6 12.4-24.4 3.8-35.1L528.3 303.4c-4.7-5.9-11.9-9.3-19.4-9.3zM671.6 177.5H345.9c-22.9 0-41.6 18.7-41.6 41.6V543.8c0 22.9 18.7 41.6 41.6 41.6h225.8c13.8 0 25-11.2 25-25s-11.2-25-25-25H354.2v-308h309V410.6c0 13.8 11.2 25 25 25s25-11.2 25-25v-191.5c0-22.9-18.7-41.6-41.6-41.6z"  horiz-adv-x="1024" />
      
      <glyph glyph-name="duihao3" unicode="&#59011;" d="M771.414658 733.796074L556.219865 88.213501 372.776604 328.102926l-49.389265-45.861718-24.694633 24.694632 88.194084 91.721631 155.222888-186.972614 179.915715 546.804043 49.389265-24.692826z"  horiz-adv-x="1024" />
      
      <glyph glyph-name="denglu2" unicode="&#59336;" d="M853.333333 768h-256V853.333333h341.333334v-938.666666h-341.333334v85.333333h256zM652.16 426.666667L512 576.554667 571.306667 640 810.666667 384l-239.36-256L512 191.445333 652.16 341.333333H85.333333v85.333334z"  horiz-adv-x="1024" />
      
      <glyph glyph-name="yanzhengma3" unicode="&#59012;" d="M908.65 639.62c-2.81 27.59-23.15 50.2-50.29 55.9a1187.653 1187.653 0 0 0-162.65 37.44A604.025 604.025 0 0 0 550.39 817.9c-23.19 16.7-54.47 16.7-77.67 0a381.187 381.187 0 0 0-146.42-84.39 545.725 545.725 0 0 0-158.17-39.09c-27.74-4.48-48.52-27.83-49.74-55.9s-1.69-140.29-1.69-263.77c0-223.54 263.77-439.86 395.7-439.86 131.88 0 355.46 152.59 391.22 436.48 8.95 167.68 5.03 268.29 5.03 268.29v-0.04zM765.02 466.95L489.47 207.07c-12.4-11.82-31.35-13.68-45.81-4.48l-7.23 6.17-152.04 158.12c-14.2 15.43-13.21 39.45 2.22 53.65 15.43 14.2 39.45 13.2 53.65-2.22l125.2-131.34L713.6 521.71c15.44 14.2 39.47 13.2 53.67-2.24 14.2-15.44 13.2-39.47-2.24-53.67v1.15h-0.01z"  horiz-adv-x="1024" />
      
      <glyph glyph-name="shanchu1" unicode="&#59018;" d="M684.642617 618.401588l-1.436722 1.467421c-12.489452 12.461823-32.730449 12.461823-45.159526 0L479.700991 461.489862l-158.286026 158.315702c-12.555967 12.524245-32.793894 12.524245-45.225017 0-12.555967-12.462846-12.555967-32.701796 0-45.223994l158.348448-158.317749L276.129573 257.950166c-12.495592-12.429077-12.495592-32.671097 0-45.163619l1.49812-1.434675c12.429077-12.494569 32.66905-12.494569 45.221948 0l158.287049 158.286026 158.283979-158.286026c12.491499-12.494569 32.731472-12.494569 45.220924 0 12.495592 12.493545 12.495592 32.731472 0 45.222971l-158.285003 158.285003 158.285003 158.314679C697.138209 585.700815 697.138209 605.939765 684.642617 618.401588M818.88197 755.477546c-187.332573 187.363272-491.033479 187.363272-678.364005 0-187.329503-187.329503-187.329503-491.032456 0-678.362982 187.330526-187.392948 491.031433-187.392948 678.364005 0C1006.274918 264.44509 1006.274918 568.148044 818.88197 755.477546M773.656953 122.339582c-162.344458-162.343435-425.569512-162.407903-587.914994 0-162.40688 162.344458-162.40688 425.602258 0 587.914994 162.344458 162.40688 425.569512 162.40688 587.914994 0C936.063833 547.940816 936.000388 284.68404 773.656953 122.339582"  horiz-adv-x="1024" />
      
      <glyph glyph-name="shanchu3" unicode="&#58963;" d="M782.246469 655.472901c36.608779-36.608779 64.905242-79.291904 84.184331-126.794801 18.651802-45.9004 28.084639-94.451162 28.010961-144.263661 0.069585-49.808406-9.359158-98.363262-28.015054-144.260591-19.279089-47.50392-47.569412-90.189092-84.175121-126.793778-36.606733-36.606733-79.294974-64.900126-126.797871-84.179214-45.896306-18.654872-94.451162-28.084639-144.259568-28.015054-49.808406-0.069585-98.365308 9.358135-144.259568 28.015054-47.50392 19.277042-90.192162 47.569412-126.800941 84.179214-36.604686 36.603663-64.895009 79.289857-84.173075 126.793778-18.656919 45.895283-28.084639 94.452185-28.015054 144.260591-0.072655 49.812499 9.359158 98.363262 28.010961 144.263661 19.280112 47.501874 47.575552 90.186022 84.183308 126.793778 36.604686 36.604686 79.286788 64.899102 126.789685 84.178191 45.9004 18.651802 94.451162 28.084639 144.263661 28.011984 49.813522 0.072655 98.363262-9.360182 144.264685-28.011984C702.959681 720.373027 745.642806 692.077587 782.246469 655.472901M827.505255 700.731688C652.829957 875.406986 369.558335 875.406986 194.883037 700.730665 20.202623 526.05025 20.201599 242.779651 194.876897 68.104353c174.681438-174.681438 457.952037-174.679391 632.632451 0C1002.18567 242.779651 1002.18567 526.05025 827.505255 700.731688L827.505255 700.731688 827.505255 700.731688zM557.129338 382.513136 716.737476 542.12025l-45.222971 45.223994L511.906367 427.736107 352.762811 586.87864l-45.344744-45.344744 159.142533-159.143557L309.697993 225.527732l45.201481-45.201481 156.86363 156.86363 157.358911-157.356864 45.333488 45.333488L557.129338 382.513136zM714.465736 225.175715"  horiz-adv-x="1024" />
      
      <glyph glyph-name="shanchu4" unicode="&#59002;" d="M512-64c-247.424 0-448 200.576-448 448s200.576 448 448 448 448-200.576 448-448-200.576-448-448-448zM512 720c-185.536 0-336-150.464-336-336s150.464-336 336-336 336 150.464 336 336-150.464 336-336 336zM707.968 328h-391.936c-15.488 0-28.032 12.544-28.032 28.032v55.936c0 15.488 12.544 28.032 28.032 28.032h392c15.488 0 28.032-12.544 28.032-28.032v-56c-0.064-15.424-12.608-27.968-28.096-27.968z"  horiz-adv-x="1024" />
      
      <glyph glyph-name="shanchu5" unicode="&#58964;" d="M320.002822 320.008467h383.994356a63.991533 63.991533 0 0 1 0 127.983066H320.002822c-35.382756 0-63.991533-28.631356-63.991532-63.991533s28.608776-63.991533 63.991532-63.991533zM0 896v-1024h1024V896H0z m960.008467-960.008467H63.991533V832.008467h895.994355v-896.016934z"  horiz-adv-x="1024" />
      
      <glyph glyph-name="kezhuo-" unicode="&#58965;" d="M944.1 592v-47.9H80V592h864.1M847.8 527.3v-293H176.3v293h671.5M160.2 526v-537.8H142V526h18.2M883.1 528.1v-537.8H865V528.1h18.1M944.1 592v-47.9H80V592h864.1m16 16H64v-79.9h896.2V608h-0.1zM847.8 527.3v-293H176.3v293h671.5m16 14.7H160.3v-322.5h703.5V542zM160.2 526v-537.8H142V526h18.2m16 16H126v-569.8h50.2V542zM883.1 528.1v-537.8H865V528.1h18.1m16 16H849v-569.8h50.2V544.1h-0.1zM202.3 608V740.4c0 21.7 17.7 39.4 39.4 39.4h197.4c21.7 0 39.4-17.7 39.4-39.4V608h16V740.4c0 30.5-24.9 55.4-55.4 55.4H241.7c-30.5 0-55.4-24.9-55.4-55.4V608h16zM570.3 608V740.4c0 21.7 17.7 39.4 39.4 39.4h197.4c21.7 0 39.4-17.7 39.4-39.4V608h16V740.4c0 30.5-24.9 55.4-55.4 55.4H609.7c-30.5 0-55.4-24.9-55.4-55.4V608h16zM846.5 608V740.4c0 21.7-17.7 39.4-39.4 39.4H609.7c-21.7 0-39.4-17.7-39.4-39.4V608h276.2zM478.5 608V740.4c0 21.7-17.7 39.4-39.4 39.4H241.7c-21.7 0-39.4-17.7-39.4-39.4V608h276.2zM190.2 658.8v-51.6h-31v51.6h31m16 16h-63v-83.6h63v83.6zM190.2 648.8v-41.5h-31v41.5h31M143.2 623.3c-4 0-7.2 3.3-7.2 7.2s3.3 7.2 7.2 7.2v16c-12.8 0-23.2-10.4-23.2-23.3 0-12.8 10.4-23.2 23.2-23.2v16.1zM168.1 640.4m-3.6 0a3.6 3.6 0 1 1 7.2 0 3.6 3.6 0 1 1-7.2 0ZM278.3 253.79999999999995v-24.5c0-4.4-3.6-8-8-8s-8 3.6-8 8v24.5c0 4.4 3.6 8 8 8s8-3.6 8-8zM724 479.1v57c0 4.4 3.6 8 8 8s8-3.6 8-8v-57c0-4.4-3.6-8-8-8s-8 3.6-8 8zM811.3 639.5V608h-31.5v31.5h31.5m12 16h-55.5c-2.2 0-4-1.8-4-4V596c0-2.2 1.8-4 4-4h55.5c2.2 0 4 1.8 4 4v55.5c0 2.2-1.8 4-4 4zM811.3 639.5V608h-31.5v31.5h31.5"  horiz-adv-x="1024" />
      
      <glyph glyph-name="yizi" unicode="&#58996;" d="M75.52 721.92a21.333333 21.333333 0 0 1-23.04-35.84C57.173333 682.666667 170.666667 606.293333 170.666667 384v-320a21.333333 21.333333 0 0 1 42.666666 0v170.666667h192v-170.666667a21.333333 21.333333 0 0 1 42.666667 0V405.333333H213.333333C205.226667 635.733333 80.853333 718.506667 75.52 721.92zM405.333333 277.333333h-192v85.333334h192v-85.333334zM977.92 715.52a21.333333 21.333333 0 0 1-29.44 6.4c-5.546667-3.413333-129.706667-85.333333-137.173333-316.586667H576v-341.333333a21.333333 21.333333 0 0 1 42.666667 0v170.666667h192v-170.666667a21.333333 21.333333 0 0 1 42.666666 0V384c0 221.866667 113.066667 298.666667 118.186667 302.08a21.333333 21.333333 0 0 1 6.4 29.44zM618.666667 277.333333v85.333334h192v-85.333334h-192zM682.666667 490.666667a64 64 0 0 1 0 128H362.666667a64 64 0 0 1 0-128h128v-426.666667a21.333333 21.333333 0 0 1 42.666666 0V490.666667h149.333334z m-341.333334 64a21.333333 21.333333 0 0 0 21.333334 21.333333h320a21.333333 21.333333 0 0 0 0-42.666667H362.666667a21.333333 21.333333 0 0 0-21.333334 21.333334z"  horiz-adv-x="1024" />
      
      <glyph glyph-name="yizi1" unicode="&#58966;" d="M841 207.8H199c-17.6 0-32 14.4-32 32v94c0 66.2 53.8 120 120 120h466c66.2 0 120-53.8 120-120v-94c0-17.7-14.3-32-32-32z m-634 40h626v86c0 44.1-35.9 80-80 80H287c-44.1 0-80-35.9-80-80v-86zM187-63.2c-11 0-20 9-20 20v283c0 11 9 20 20 20s20-9 20-20v-283c0-11.1-8.9-20-20-20zM853-63.2c-11 0-20 9-20 20v283c0 11 9 20 20 20s20-9 20-20v-283c0-11.1-8.9-20-20-20zM305 41.8c-11 0-20 9-20 20v166c0 11 9 20 20 20s20-9 20-20v-166c0-11.1-8.9-20-20-20zM760 41.8c-11 0-20 9-20 20v166c0 11 9 20 20 20s20-9 20-20v-166c0-11.1-8.9-20-20-20zM800.5 410.8c-11 0-20 9-20 20v359h-521v-359c0-11-9-20-20-20s-20 9-20 20V793.2c0 20.5 14.1 36.6 32.1 36.6h536.7c18 0 32.1-16.1 32.1-36.6v-362.4c0.1-11.1-8.8-20-19.9-20z"  horiz-adv-x="1024" />
      
      <glyph glyph-name="shexiangji" unicode="&#58967;" d="M713 8H40a40 40 0 0 0-40 40V510a40 40 0 0 0 40 40h673a40 40 0 0 0 40-40v-462a40 40 0 0 0-40-40zM80 88h593V470H80zM544 110H209a99 99 0 0 0 0 198h335a99 99 0 0 0 0-198zM209 228a19 19 0 0 1 0-38h335a19 19 0 0 1 0 38zM984 45l-11 2-271 80a40 40 0 0 0-29 38V393a40 40 0 0 0 29 38l271 80a40 40 0 0 0 51-38v-388a40 40 0 0 0-40-40zM753 195l191-56V419l-191-56zM164 550c-79 0-143 64-143 143S85 836 164 836s143-64 143-143-64-143-143-143z m0 206a63 63 0 1 1 63-63 63 63 0 0 1-63 63zM488 550c-95 0-173 78-173 173S393 896 488 896s173-78 173-173-78-173-173-173z m0 266a93 93 0 1 1 93-93 93 93 0 0 1-93 93zM164-127a40 40 0 0 0-36 57l56 123a40.056 40.056 0 1 0 73-33l-56-123a40 40 0 0 0-37-24zM580-127a40 40 0 0 0-36 23l-56 123a40.056 40.056 0 1 0 73 33l56-123a40 40 0 0 0-36-57zM597 358h-47a40 40 0 0 0 0 80h47a40 40 0 0 0 0-80z"  horiz-adv-x="1025" />
      
      <glyph glyph-name="xiaozu" unicode="&#58972;" d="M288 505.6c128.9 0 241.3-70.6 300.7-175.2C710.5 364 800 475.5 800 608 800 767.1 671.1 896 512 896S224 767.1 224 608c0-37.1 7-72.6 19.8-105.2 14.5 1.8 29.2 2.8 44.2 2.8zM812.7 437.6C753.3 333 640.9 262.4 512 262.4c-15 0-29.7 1-44.2 2.8C455 232.6 448 197.1 448 160c0-159.1 128.9-288 288-288s288 128.9 288 288c0 132.5-89.5 244-211.3 277.6zM471.3 382.2C421.5 423.3 357.6 448 288 448 128.9 448 0 319.1 0 160s128.9-288 288-288c69.6 0 133.5 24.7 183.3 65.8-50.5 60.1-80.9 137.6-80.9 222.2s30.4 162.1 80.9 222.2z"  horiz-adv-x="1024" />
      
      <glyph glyph-name="kezhuo" unicode="&#58981;" d="M136.64 281.12a8 8 0 0 0-8 8V542.88a8 8 0 0 0 16 0v-241.12L286.72 368l2.24 176a8 8 0 0 0 8 7.84 8 8 0 0 0 7.84-8.16l-2.24-181.6a8 8 0 0 0-4.64-7.2l-157.92-72.96a7.84 7.84 0 0 0-3.36-0.8zM773.6 285.6a8 8 0 0 0-8 8V526.88a18.24 18.24 0 0 1-25.44 16 34.24 34.24 0 0 0-48 32v72a8 8 0 0 0 16 0v-71.84a18.24 18.24 0 0 1 25.44-16 34.24 34.24 0 0 0 48-32V305.6l142.08 58.56 2.24 375.2a8 8 0 0 0 8 8 8 8 0 0 0 8-8l-2.24-380.48a8 8 0 0 0-4.96-7.36l-158.08-65.12a8 8 0 0 0-3.04-0.8zM66.4 679.2h-6.24a8 8 0 0 0-3.04 16l233.6 96a7.84 7.84 0 0 0 3.04 0h652a8 8 0 0 0 3.04-16l-233.76-96a8.16 8.16 0 0 0-3.04 0z m228.96 96l-194.72-80H710.4l194.72 80zM78.56 540.64a8 8 0 0 0-3.04 16l224 94.56a8 8 0 0 0 6.24-14.72l-224-94.56a8.16 8.16 0 0 0-3.2-1.28zM724 539.36L80 539.68a8 8 0 0 0-2.72 0 32 32 0 0 0-22.4 30.4v79.2a8 8 0 1 0 16 0v-78.56a16 16 0 0 1 10.72-14.88h642.08a8 8 0 0 0 0-16zM66.56 640.96H62.4a27.04 27.04 0 0 0 4 53.92h638.56a27.2 27.2 0 0 0 0-54.4z m638.4 38.72H66.4A11.04 11.04 0 0 1 64 657.12H704.48a11.2 11.2 0 0 1 0 22.4zM714.4 641.28a8 8 0 0 0-3.04 16l228.64 93.44V771.84l-222.56-91.68a8 8 0 0 0-6.08 14.72l233.6 96a8 8 0 0 0 11.04-7.36v-38.4a8 8 0 0 0-4.96-7.36l-233.6-96a7.84 7.84 0 0 0-3.04-0.48zM736-23.04a8 8 0 0 0-8 8v38.4a8 8 0 0 0 4.96 7.36l226.08 93.44a8 8 0 0 0 11.04-7.36v-38.4a8 8 0 0 0-4.96-7.36L738.72-22.4a8 8 0 0 0-2.72-0.64z m8 40.96v-21.12l210.08 86.88v21.12zM731.84-28.8a8 8 0 0 0-8 8v46.72a8 8 0 0 0 4.8 7.36l28.16 12.64a8 8 0 0 0 11.2-7.36v-46.72a8 8 0 0 0-4.8-7.36l-28.16-12.64a8 8 0 0 0-3.2-0.64z m8 49.6v-29.12l12.16 5.44v29.12zM960 64a8 8 0 0 0-8 8v46.4a8 8 0 0 0 4.8 7.36l29.28 12.8a8 8 0 0 0 11.2-7.36v-46.72a8 8 0 0 0-4.8-7.36l-29.28-12.8a8 8 0 0 0-3.2-0.32z m8 49.44v-29.28l13.28 5.76v28.96zM99.84-23.04a8 8 0 0 0-8 8v38.4a8 8 0 0 0 4.16 7.36l226.08 93.44a8 8 0 0 0 11.04-7.36v-38.4a8 8 0 0 0-4.96-7.36L102.88-22.4a8 8 0 0 0-3.04-0.64z m8 40.96v-21.12l210.08 86.88v21.12zM96-28.8a8 8 0 0 0-8 8v46.72a8 8 0 0 0 4.8 7.36l28.16 12.64a8 8 0 0 0 11.2-7.36v-46.72A8 8 0 0 0 128-16l-28.16-12.64a8 8 0 0 0-3.84-0.16z m8 49.6v-29.12l12.16 5.44v29.12zM323.52 64a8 8 0 0 0-8 8v46.4a8 8 0 0 0 4.8 7.36l29.28 12.8a8 8 0 0 0 11.2-7.36v-46.72a8 8 0 0 0-4.8-7.36l-29.28-12.8a8 8 0 0 0-3.2-0.32z m8 49.44v-29.28l13.28 5.76v28.96zM176 48a8 8 0 0 0-8 8V306.4a8 8 0 0 0 4.96 7.36l30.72 12.48a8 8 0 0 0 7.52 0 8 8 0 0 0 3.52-6.72v-251.36a8 8 0 0 0-4.96-7.36l-31.36-12.8a7.84 7.84 0 0 0-2.4 0z m8 253.28v-233.76l14.72 6.08V307.04z m22.72-232.8zM231.2 71.04a8 8 0 0 0-8 8V329.76a8 8 0 0 0 4.96 7.36l30.72 12.64a8 8 0 0 0 11.04-7.36v-138.4a8 8 0 0 0-16 0v126.4l-14.72-6.08v-233.44l14.72 6.08v68.8a8 8 0 0 0 16 0v-74.08a8 8 0 0 0-4.96-7.36l-30.72-12.64a8 8 0 0 0-3.04-0.64zM856.16 158.08h-14.24a8 8 0 0 0 0 16h14.24a10.4 10.4 0 0 1 6.24 1.92 8 8 0 0 0 9.44-12.8 26.56 26.56 0 0 0-15.68-5.12zM867.04 192a8 8 0 0 0-4.8 1.6 10.56 10.56 0 0 1-6.24 2.08h-14.08a8 8 0 0 0 0 16h14.08a26.88 26.88 0 0 0 16-5.28 8 8 0 0 0-4.8-14.4zM261.92 157.76h-27.68a8 8 0 0 0-8 8v38.24a8 8 0 0 0 8 8H811.2a8 8 0 0 0 0-16H242.24v-22.24H811.2a8 8 0 0 0 0-16zM867.2 71.04a8 8 0 0 0-4.48 1.28 8 8 0 0 0-3.52 6.72V329.76a8 8 0 0 0 4.96 7.36l30.72 12.48a7.84 7.84 0 0 0 7.52 0 8 8 0 0 0 3.52-6.72v-251.36a8 8 0 0 0-4.96-7.36l-30.72-12.48a7.84 7.84 0 0 0-3.04-0.64z m8 253.28v-233.44l14.72 6.08V330.4z m22.72-232.8zM811.2 48a8 8 0 0 0-4.48 1.28 8 8 0 0 0-3.52 6.72V306.4a8 8 0 0 0 4.96 7.36l30.72 12.48a7.84 7.84 0 0 0 7.52 0 8 8 0 0 0 3.52-6.72v-251.36a8 8 0 0 0-4.96-7.36l-30.72-12.8a7.84 7.84 0 0 0-3.04 0z m8 253.28v-233.76l14.72 6.08V307.04z m22.72-232.8zM855.68 493.92c-11.36 0-20.16 11.84-20.16 27.04s8.8 27.04 20.16 27.04 20.16-11.84 20.16-27.04-8.8-27.04-20.16-27.04z m0 37.92c-0.96 0-4.16-4-4.16-11.04s3.2-10.88 4.16-11.04 4.16 3.84 4.16 11.04-3.2 10.88-4.16 11.04zM855.68 400c-11.36 0-20.16 11.84-20.16 27.04s8.8 27.04 20.16 27.04 20.16-11.84 20.16-27.04S867.04 400 855.68 400z m0 37.92c-0.96 0-4.16-3.84-4.16-11.04s3.2-10.88 4.16-11.04 4.16 4 4.16 11.04-3.2 10.56-4.16 10.72zM217.6 493.92c-11.36 0-20.16 11.84-20.16 27.04s8.8 27.04 20.16 27.04 20.16-11.84 20.16-27.04-8.96-27.04-20.16-27.04z m0 37.92c-0.96 0-4.16-4-4.16-11.04s3.2-10.88 4.16-11.04 4.16 3.84 4.16 11.04-3.2 10.88-4.16 11.04zM217.6 400c-11.36 0-20.16 11.84-20.16 27.04s8.8 27.04 20.16 27.04 20.16-11.84 20.16-27.04S228.8 400 217.6 400z m0 37.92c-0.96 0-4.16-3.84-4.16-11.04s3.2-10.88 4.16-11.04 4.16 3.84 4.16 11.04-3.2 10.56-4.16 10.72z"  horiz-adv-x="1024" />
      
      <glyph glyph-name="24gf-videoCamera" unicode="&#59894;" d="M640 629.333333v-490.666666a53.393333 53.393333 0 0 0-53.333333-53.333334H53.333333a53.393333 53.393333 0 0 0-53.333333 53.333334V629.333333a53.393333 53.393333 0 0 0 53.333333 53.333334h533.333334a53.393333 53.393333 0 0 0 53.333333-53.333334z m357.053333 46.133334a52.746667 52.746667 0 0 1-53.613333-0.493334l-192-114a53.553333 53.553333 0 0 1-26.106667-45.853333v-262.24a53.54 53.54 0 0 1 26.106667-45.853333l192-114a53.333333 53.333333 0 0 1 80.56 45.853333V629.12a52.746667 52.746667 0 0 1-26.946667 46.346667z"  horiz-adv-x="1024" />
      
      <glyph glyph-name="shanchu6" unicode="&#58982;" d="M512 831.5C264.85 831.5 64.5 631.15 64.5 384S264.85-63.5 512-63.5 959.5 136.85 959.5 384 759.15 831.5 512 831.5z m235.21-599.09c16.06-13.81 17.89-38.03 4.08-54.09-7.59-8.83-18.31-13.36-29.1-13.36-8.85 0-17.74 3.05-24.98 9.26L512 333.41 326.79 174.22a38.22 38.22 0 0 0-24.98-9.26c-10.79 0-21.52 4.53-29.1 13.36-13.81 16.06-11.98 40.28 4.08 54.09L453.15 384 276.79 535.58c-16.06 13.81-17.89 38.03-4.08 54.09 13.81 16.07 38.01 17.89 54.09 4.1L512 434.58l185.2 159.19c16.08 13.8 40.29 11.96 54.09-4.1 13.81-16.06 11.98-40.28-4.08-54.09L570.85 383.99l176.36-151.58z"  horiz-adv-x="1024" />
      
      <glyph glyph-name="shexiangji1" unicode="&#58983;" d="M1204.148148 104.751407a51.52237 51.52237 0 0 0-51.332741-51.693037 50.479407 50.479407 0 0 0-23.855407 6.181926l-0.227556 0.113778a50.87763 50.87763 0 0 0-6.447407 4.039111l-164.238222 102.874074V118.518519a189.62963 189.62963 0 0 0-189.62963-189.62963H246.518519A189.62963 189.62963 0 0 0 56.888889 118.518519V649.481481A189.62963 189.62963 0 0 0 246.518519 839.111111h521.917629a189.62963 189.62963 0 0 0 189.62963-189.62963v-47.407407l148.404148 92.918519a56.395852 56.395852 0 0 0 46.326518 19.892148 51.52237 51.52237 0 0 0 51.351704-51.636148v-558.497186zM835.299556 601.163852a113.777778 113.777778 0 0 1-113.777778 113.777778H293.432889a113.777778 113.777778 0 0 1-113.777778-113.777778v-434.251852a113.777778 113.777778 0 0 1 113.777778-113.777778h428.088889a113.777778 113.777778 0 0 1 113.777778 113.777778v434.251852z m266.353777-96.711111a25.050074 25.050074 0 0 1-25.73274 24.310518 26.81363 26.81363 0 0 1-9.481482-1.896296l-0.246518 0.170667-108.088889-63.336297v-180.148148l105.813333-61.952a26.225778 26.225778 0 0 1 12.022519-3.185778 24.955259 24.955259 0 0 1 25.656888 23.988149v0.189629-0.189629c0 67.584-0.151704 260.058074-0.151703 260.058074l-0.170667 0.113777c0.075852 0.682667 0.474074 1.194667 0.474074 1.782519z m-641.327407-17.066667h-109.985185a47.407407 47.407407 0 0 0-47.407408 47.407407v9.121186a47.407407 47.407407 0 0 0 47.407408 47.407407h109.985185a47.407407 47.407407 0 0 0 47.407407-47.407407v-9.121186a47.407407 47.407407 0 0 0-47.388444-47.407407zM1204.148148 756.186074v-0.720593l-0.587852 0.360297z"  horiz-adv-x="1270" />
      
      <glyph glyph-name="shanchu_huaban" unicode="&#58985;" d="M5.73 415.7h1012.65v-64H5.73z"  horiz-adv-x="1024" />
      
      <glyph glyph-name="yonghuxiaozushezhi" unicode="&#59238;" d="M856.856774 325.202581l-6.606451 23.783225h-29.068388c-11.230968 0-21.140645-7.927742-23.12258-19.158709-7.267097-38.978065-22.461935-74.652903-43.602581-105.703226-6.606452-9.249032-5.285161-22.461935 2.642581-30.389677l20.48-20.48c1.32129-1.32129 1.981935-3.303226 2.64258-5.945807 0-1.981935-0.660645-3.963871-2.64258-5.945806l-33.692903-33.692904c-1.32129-1.32129-3.303226-2.642581-5.945807-2.64258-1.981935 0-3.963871 0.660645-5.945806 2.64258l-20.48 20.48c-7.927742 7.927742-21.140645 9.249032-30.389678 2.642581-31.050323-21.140645-67.385806-36.335484-105.703226-43.602581-11.230968-1.981935-19.15871-11.891613-19.158709-23.12258v-29.068387c0-4.624516-3.303226-7.927742-7.927742-7.927742h-47.566452c-4.624516 0-7.927742 3.303226-7.927742 7.927742v29.068387c0 11.230968-7.927742 21.140645-19.158709 23.12258-38.978065 7.267097-74.652903 22.461935-105.703226 43.602581-9.249032 6.606452-22.461935 5.285161-30.389678-2.642581l-20.48-20.48c-1.32129-1.32129-3.303226-2.642581-5.945806-2.64258-1.981935 0-3.963871 0.660645-5.945806 2.64258l-33.692904 33.692904c-1.32129 1.32129-1.981935 3.303226-2.64258 5.945806 0 1.981935 0.660645 3.963871 2.64258 5.945807l20.48 20.48c7.927742 7.927742 9.249032 21.140645 2.642581 30.389677-21.140645 31.050323-36.335484 67.385806-43.602581 105.703226-1.981935 11.230968-11.891613 19.15871-23.12258 19.158709h-29.068387c-4.624516 0-7.927742 3.303226-7.927742 7.927742v47.566452c0 4.624516 3.303226 7.927742 7.927742 7.927742h29.068387c11.230968 0 21.140645 7.927742 23.12258 19.15871 7.267097 38.978065 22.461935 74.652903 43.602581 105.703225 6.606452 9.249032 5.285161 22.461935-2.642581 30.389678l-20.48 20.48c-1.32129 1.32129-1.981935 3.303226-2.64258 5.945806 0 1.981935 0.660645 3.963871 2.64258 5.945807l33.692904 33.692903c1.32129 1.32129 3.303226 2.642581 5.945806 2.642581 1.981935 0 3.963871-0.660645 5.945806-2.642581l20.48-20.48c7.927742-7.927742 21.140645-9.249032 30.389678-2.642581 31.050323 21.140645 67.385806 36.335484 105.703226 43.602581 11.230968 1.981935 19.15871 11.891613 19.158709 23.122581v29.068387c0 4.624516 3.303226 7.927742 7.927742 7.927742H548.335484c4.624516 0 7.927742-3.303226 7.927742-7.927742v-29.068387c0-11.230968 7.927742-21.140645 19.158709-23.122581 38.978065-7.267097 74.652903-22.461935 105.703226-43.602581 9.249032-6.606452 22.461935-5.285161 30.389678 2.642581l20.48 20.48c1.32129 1.32129 3.303226 2.642581 5.945806 2.642581 1.981935 0 3.963871-0.660645 5.945807-2.642581l33.692903-33.692903c1.32129-1.32129 1.981935-3.303226 2.64258-5.945807 0-1.981935-0.660645-3.963871-2.64258-5.945806l-20.48-20.48c-7.927742-7.927742-9.249032-21.140645-2.642581-30.389678 21.140645-31.050323 36.335484-67.385806 43.602581-105.703225 1.981935-11.230968 11.891613-19.15871 23.12258-19.15871h29.068388c4.624516 0 7.927742-3.303226 7.927742-7.927742v-47.566452c0-4.624516-3.303226-7.927742-7.927742-7.927742l-6.606452-23.783225 6.606452-23.783226c31.050323 0 55.494194 25.104516 55.494193 55.494193v47.566452c0 31.050323-25.104516 55.494194-55.494193 55.494194h-29.068388v-23.783226l23.122581 4.624516c-8.588387 45.584516-26.425806 87.205161-51.530322 124.20129l-19.819355-13.212903 17.176774-17.176774 20.48 20.48c10.570323 10.570323 16.516129 25.104516 16.516129 39.638709 0 13.873548-5.285161 28.407742-16.516129 39.63871l-33.692903 33.692903c-10.570323 10.570323-25.104516 16.516129-39.63871 16.516129-13.873548 0-28.407742-5.285161-39.63871-16.516129l-20.48-20.48 17.176775-17.176774 13.212903 19.819355c-36.335484 25.104516-78.616774 42.941935-124.201291 51.530323l-4.624516-23.122581h23.783226v29.068387c0 31.050323-25.104516 55.494194-55.494193 55.494194h-47.566452c-31.050323 0-55.494194-25.104516-55.494194-55.494194v-29.068387H469.058065l-4.624517 23.122581c-45.584516-8.588387-87.205161-26.425806-124.20129-51.530323l13.212903-19.819355 17.176774 17.176774-20.48 19.819355c-10.570323 10.570323-25.104516 16.516129-39.638709 16.516129-13.873548 0-28.407742-5.285161-39.63871-16.516129l-33.032258-33.692903c-10.570323-10.570323-16.516129-25.104516-16.516129-39.63871 0-13.873548 5.285161-28.407742 16.516129-39.638709l20.48-20.48 17.176774 17.176774-19.819355 13.212903c-25.104516-36.335484-42.941935-78.616774-51.530322-124.20129l23.12258-4.624516V453.367742L198.193548 459.974194c-31.050323 0-55.494194-25.104516-55.494193-55.494194v-47.566452c0-31.050323 25.104516-55.494194 55.494193-55.494193l29.068387 6.606451v17.176775l-23.12258-4.624516c8.588387-45.584516 26.425806-87.205161 51.530322-124.201291l19.819355 13.212903-17.176774 17.176775-20.48-20.48c-10.570323-10.570323-16.516129-25.104516-16.516129-39.63871 0-13.873548 5.285161-28.407742 16.516129-39.63871l33.692903-33.692903c10.570323-10.570323 25.104516-16.516129 39.63871-16.516129 13.873548 0 28.407742 5.285161 39.63871 16.516129l20.48 20.48-17.176775 17.176774-13.212903-19.819355c36.335484-25.104516 78.616774-42.941935 124.201291-51.530322l4.624516 23.12258h-23.783226v-29.068387c0-31.050323 25.104516-55.494194 55.494193-55.494193H548.335484c31.050323 0 55.494194 25.104516 55.494193 55.494193v29.068387h-23.783225l4.624516-23.12258c45.584516 8.588387 87.205161 26.425806 124.20129 51.530322l-13.212903 19.819355-17.176774-17.176774 20.48-20.48c10.570323-10.570323 25.104516-16.516129 39.638709-16.516129 13.873548 0 28.407742 5.285161 39.63871 16.516129l33.692903 33.692903c10.570323 10.570323 16.516129 25.104516 16.516129 39.63871 0 13.873548-5.285161 28.407742-16.516129 39.63871l-20.48 20.48-17.176774-17.176775 19.819355-13.212903c25.104516 36.335484 42.941935 78.616774 51.530322 124.201291l-23.12258 4.624516V301.419355h29.068387v23.783226h5.285161zM573.44 571.623226l6.606452-23.783226c26.425806 0 47.566452-21.140645 47.566451-47.566452s-21.140645-47.566452-47.566451-47.566451-47.566452 21.140645-47.566452 47.566451 21.140645 47.566452 47.566452 47.566452l6.606451 23.783226-6.606451 23.783226c-52.851613 0-95.132903-42.941935-95.132904-95.132904 0-52.851613 42.941935-95.132903 95.132904-95.132903 52.851613 0 95.132903 42.941935 95.132903 95.132903 0 52.851613-42.941935 95.132903-95.132903 95.132904v-23.783226h-6.606452zM459.809032 445.44c-26.425806 0-47.566452 21.140645-47.566451 47.566452s21.140645 47.566452 47.566451 47.566451c13.212903 0 23.783226 10.570323 23.783226 23.783226s-10.570323 23.783226-23.783226 23.783226c-52.851613 0-95.132903-42.941935-95.132903-95.132903 0-52.851613 42.941935-95.132903 95.132903-95.132904 13.212903 0 23.783226 10.570323 23.783226 23.783226s-10.570323 23.783226-23.783226 23.783226zM478.307097 245.925161c0 87.865806 54.833548 150.627097 110.327742 150.627097 55.494194 0 110.327742-63.421935 110.327742-150.627097 0-13.212903 10.570323-23.783226 23.783225-23.783226s23.783226 10.570323 23.783226 23.783226c0 105.042581-65.403871 196.872258-157.894193 198.193549-92.490323-1.32129-157.894194-93.150968-157.894194-198.193549 0-13.212903 10.570323-23.783226 23.783226-23.783226s23.783226 10.570323 23.783226 23.783226zM350.802581 245.925161c0 87.865806 54.833548 150.627097 110.327742 150.627097 13.212903 0 23.783226 10.570323 23.783225 23.783226s-10.570323 23.783226-23.783225 23.783226c-92.490323-1.32129-157.894194-93.150968-157.894194-198.193549 0-13.212903 10.570323-23.783226 23.783226-23.783226s23.783226 10.570323 23.783226 23.783226z"  horiz-adv-x="1024" />
      
      <glyph glyph-name="xiaozu1" unicode="&#58987;" d="M548.864 319.7952A228.9664 228.9664 0 0 1 675.84 523.264C675.84 649.728 570.1632 752.64 440.32 752.64S204.8 649.728 204.8 523.264a228.9664 228.9664 0 0 1 126.976-203.4688C198.2464 281.6 95.4368 175.5136 71.68 39.3216a20.48 20.48 0 1 1 40.3456-6.9632C138.4448 183.9104 276.48 293.888 440.32 293.888s301.8752-109.9776 327.68-261.5296A20.48 20.48 0 0 1 788.48 15.36a20.48 20.48 0 0 1 3.4816 0A20.48 20.48 0 0 1 808.96 39.3216C785.2032 175.5136 682.3936 281.6 548.864 319.7952zM245.76 523.264C245.76 627.2 333.0048 711.68 440.32 711.68s194.56-84.48 194.56-188.416-87.2448-188.416-194.56-188.416-194.56 84.48-194.56 188.416zM952.32 38.0928a397.824 397.824 0 0 1-209.1008 300.6464 232.448 232.448 0 0 1 66.8672 179.9168 235.52 235.52 0 0 1-75.264 153.6 20.48 20.48 0 0 1-27.7504-30.72 193.6384 193.6384 0 0 0 62.1568-126.3616 195.9936 195.9936 0 0 0-75.5712-166.5024 20.48 20.48 0 0 1 5.4272-34.9184C810.9056 269.9264 898.2528 154.7264 911.36 33.5872A20.48 20.48 0 0 1 931.84 15.36h2.2528A20.48 20.48 0 0 1 952.32 38.0928z"  horiz-adv-x="1024" />
      
      <glyph glyph-name="renxiang" unicode="&#58954;" d="M526.336 827.392q91.136 0 171.008-32.768t139.264-89.6 93.696-133.632 34.304-163.84q0-88.064-35.328-164.864t-96.768-134.144q-19.456-21.504-51.2-21.504-22.528 0-41.984 13.312-43.008 27.648-61.952 57.856t-27.648 62.464-12.288 65.536-14.848 66.56-36.352 67.072-76.288 67.584q-25.6 16.384-48.128 24.576t-45.056 14.848-44.032 14.336-45.056 23.552-48.64 41.984-52.736 69.12q25.6 36.864 60.928 65.024t75.264 47.616 81.92 29.184 81.92 9.728zM570.368 350.208q14.336-31.744 19.968-61.44t8.704-57.344 8.704-52.736 20.48-48.128 42.496-44.032 76.8-39.424q3.072-3.072 5.12-11.776t5.12-19.968 9.728-26.112 19.968-30.208q-92.16-22.528-171.008-25.6t-158.72 20.48q9.216 22.528 13.312 40.96t5.12 34.304 0.512 30.208-1.536 29.696q-2.048 29.696-20.992 36.864t-44.032 3.584-50.176-12.288-40.448-10.752q-17.408-3.072-36.352-4.608t-35.328 1.024-26.112 9.728-6.656 22.528q2.048 12.288 4.608 28.672t2.56 33.792-5.632 33.28-19.968 27.136q-6.144 4.096-19.968 10.752t-26.112 14.848-18.432 16.384 3.072 16.384q20.48 15.36 41.984 34.816t32.768 41.984q5.12 10.24 6.144 21.504t-0.512 20.992-3.584 17.408-2.048 12.8-4.096 13.312-8.192 22.528-6.144 35.84 2.048 54.272q-26.624-7.168-37.888-30.72t-7.168-58.368q-16.384 24.576-17.408 45.568t6.656 37.888 22.528 30.208 31.232 22.528q26.624-57.344 57.856-86.016t65.536-43.52 69.12-21.504 68.096-19.968 63.488-39.424 54.784-78.336z"  horiz-adv-x="1024" />
      
      <glyph glyph-name="touxiang" unicode="&#58955;" d="M908.548 690.339 582.454 875.521C560.495 888.021 536.037 894.215 511.578 894.215c-24.458 0-48.917-6.194-70.875-18.693L114.591 690.339c-44.496-25.298-71.976-72.312-71.976-123.281l0-367.902c0-50.932 27.48-97.982 71.976-123.242l326.112-185.223C462.661-121.77 487.12-128 511.578-128c24.459 0 48.917 6.23 70.876 18.691l326.094 185.223c44.514 25.26 71.975 72.311 71.975 123.242L980.523 567.058C980.522 618.027 953.062 665.041 908.548 690.339zM548.257-49.83c-11.155-6.307-23.843-9.664-36.679-9.664-12.854 0-25.541 3.357-36.679 9.664L235.427 86.174c15.597 8.58 31.623 14.551 45.26 15.709 16.53 1.418 39.645 7.162 64.123 13.246 9.179 2.313 18.414 4.588 27.145 6.604 51.547 11.902 68.749 22.723 77.199 29.85 7.93 6.68 12.388 16.529 12.202 26.865-0.504 22.5-8.209 44.402-22.425 63.619-2.258 3.955-5.317 7.424-8.993 10.223-46.827 35.635-74.793 97.236-74.793 164.734 0 106.64 70.503 193.393 157.162 193.393 86.64 0 157.123-86.64 157.123-193.204 0-67.35-27.966-128.803-74.793-164.438-2.238-1.68-4.328-3.768-6.101-5.969-16.306-20.41-24.794-42.76-25.297-66.379-0.188-10.262 4.216-20.039 12.014-26.717 7.594-6.455 23.173-15.484 76.66-27.908 32.237-7.539 69.475-14.031 90.52-15.822 17.816-1.566 37.76-8.357 55.503-17.982L548.257-49.83zM911.607 199.156c0-26.268-14.273-50.744-37.257-63.805l-9.981-5.672c-0.337 0.299-0.466 0.709-0.803 0.971-32.312 26.342-75.37 44.104-115.184 47.537-17.574 1.529-52.275 7.686-80.745 14.326-11.978 2.762-21.249 5.225-28.282 7.24 0.355 0.559 0.728 1.117 1.138 1.715 61.361 48.844 97.87 129.027 97.87 215.743 0 144.324-101.415 261.709-226.057 261.709-124.68 0-226.077-117.46-226.077-261.898 0-86.49 36.193-166.525 97.087-215.406 1.212-1.641 2.294-3.283 3.283-5-7.239-2.313-17.071-5.111-30.242-8.133-9.123-2.127-18.73-4.516-28.264-6.902-19.832-4.926-42.293-10.484-53.32-11.455-34.477-2.947-73.281-20.297-105.8-46.193l-20.186 11.418c-22.965 13.061-37.256 37.537-37.256 63.805L111.531 567.058c0 26.306 14.291 50.745 37.256 63.804l326.112 185.22c11.138 6.306 23.824 9.664 36.679 9.664 12.836 0 25.523-3.357 36.679-9.664l326.094-185.22c22.983-13.06 37.257-37.499 37.257-63.804L911.608 199.156z"  horiz-adv-x="1024" />
      
      <glyph glyph-name="morentouxiang" unicode="&#58956;" d="M956.696128 383.24173c0-245.270123-199.054545-444.137403-444.615287-444.137403-245.538229 0-444.522166 198.868303-444.522166 444.137403 0 188.264804 117.181863 349.108073 282.675034 413.747255 50.002834 20.171412 104.631012 31.311123 161.858388 31.311123 57.297984 0 111.87909-11.128455 161.928996-31.311123C839.504032 732.349803 956.696128 571.505511 956.696128 383.24173L956.696128 383.24173M341.214289 476.908016c0-74.846662 38.349423-139.64855 94.097098-171.367973 23.119557-13.155624 49.151443-20.742417 76.769454-20.742417 26.64894 0 51.773154 7.096628 74.286913 19.355837 57.06467 31.113625 96.650247 96.707552 96.650247 172.742273 0 105.867166-76.664054 192.039781-170.936137 192.039781C417.867086 668.946774 341.214289 582.773136 341.214289 476.908016L341.214289 476.908016M513.886977-32.114163c129.883139 0 245.746984 59.732429 321.688583 153.211451-8.971325 73.739445-80.824817 136.51314-182.517917 167.825286-38.407752-34.55091-87.478354-55.340399-140.989081-55.340399-54.698786 0-104.770182 21.907962-143.55144 57.96211-98.921987-28.234041-171.379229-85.823668-188.368158-154.831344C255.507278 34.342412 376.965537-32.114163 513.886977-32.114163L513.886977-32.114163M513.886977-32.114163 513.886977-32.114163z"  horiz-adv-x="1024" />
      
      <glyph glyph-name="morentouxiang1" unicode="&#58957;" d="M512-50.858667c-239.616 0-434.858667 195.242667-434.858667 434.858667S272.384 818.858667 512 818.858667s434.858667-195.242667 434.858667-434.858667-195.242667-434.858667-434.858667-434.858667z m0 828.757334c-217.088 0-393.898667-176.810667-393.898667-393.898667 0-217.088 176.810667-393.898667 393.898667-393.898667 217.088 0 393.898667 176.810667 393.898667 393.898667 0 217.088-176.810667 393.898667-393.898667 393.898667zM509.952 280.917333c-106.496 0-193.194667 86.698667-193.194667 193.194667s86.698667 193.194667 193.194667 193.194667c106.496 0 193.194667-86.698667 193.194667-193.194667S616.448 280.917333 509.952 280.917333z m0 345.429334c-83.968 0-152.234667-68.266667-152.234667-152.234667s68.266667-152.234667 152.234667-152.234667S662.186667 390.144 662.186667 474.112 593.92 626.346667 509.952 626.346667zM512-50.858667c-111.957333 0-219.136 43.008-300.373333 120.149334l-8.874667 8.192 3.413333 11.605333c37.546667 136.533333 162.474667 232.106667 303.786667 232.106667 143.36 0 268.288-96.938667 304.469333-234.837334l2.730667-11.605333-8.874667-8.192c-79.872-75.776-185.002667-117.418667-296.277333-117.418667zM249.173333 90.453333c72.362667-64.853333 165.205333-100.352 262.826667-100.352 96.256 0 187.733333 34.816 259.413333 98.304-34.816 114.005333-140.629333 192.512-261.461333 192.512-118.784 0-224.597333-77.824-260.778667-190.464z"  horiz-adv-x="1024" />
      
      <glyph glyph-name="icon-test" unicode="&#58980;" d="M512.271 895.95c-282.704 0-511.917-229.213-511.917-511.917 0-174.101 86.953-327.884 219.773-420.369 0.567 1.971 1.2 3.904 1.8 5.849 0.371 1.204 0.725 2.416 1.112 3.608 1.337 4.137 2.741 8.232 4.249 12.265 0.092 0.246 0.192 0.479 0.287 0.725 1.416 3.766 2.92 7.482 4.483 11.161 0.517 1.208 1.058 2.4 1.587 3.604 14.253 31.917 33.094 59.207 56.043 82.428-45.691-61.394-45.091-60.24-44.466-59.111 17.252 30.717 39.031 56.712 64.782 78.091-58.224-66.905-57.891-66.43-57.583-65.934 1.883 3.008 3.82 5.974 5.812 8.894 0.871 1.283 1.775 2.529 2.666 3.795 21.18 29.805 47.376 54.535 77.583 73.456-47.916-35.162-21.136-12.116 9.366 5.113-73.543-61.126-72.476-59.801-71.368-58.509 1.941 2.27 3.941 4.491 5.957 6.695 1.621 1.775 3.274 3.52 4.945 5.249 1.737 1.808 3.479 3.608 5.274 5.366 1.454 1.433 2.95 2.825 4.437 4.224 26.806 25.267 58.886 45.271 94.38 58.16l-85.028-49.757c24.583 21.076 53.108 38.035 84.807 50.225 1.433 0.554 2.87 1.108 4.32 1.641 25.576 9.704 55.196 16.394 86.033 18.728-77.026-15.57-75.464-15.070-73.901-14.566 2.504 0.804 5.003 1.612 7.545 2.358 1.541 0.454 3.112 0.862 4.67 1.3 21.939 6.356 47.324 10.527 73.509 11.595-58.116-7.708-56.087-7.217-54.037-6.775 2.22 0.475 4.466 0.9 6.707 1.329 17.757 3.633 38.375 5.946 59.449 6.407-37.459-2.398-19.851-0.696-1.893-0.442-34.543-2.319-32.71-2.069-30.86-1.861 11.619 1.419 25.155 2.27 38.873 2.349l26.587-1.032c4.753-0.354 9.453-0.821 14.123-1.354 1.325-0.15 2.637-0.329 3.958-0.496 19.745-2.508 37.215-6.071 54.2-10.797-20.938 5.719-0.444 0.456 19.253-6.496-47.761 13.093-46.582 12.881-45.416 12.631 29.408-6.27 55.399-15.541 79.665-27.738-52.165 20.714-51.107 20.368-50.040 20.035 30.127-9.468 56.341-22.117 80.262-37.951-63.827 32.372-60.749 31.202-57.687 29.985 29.845-11.844 56.791-27.991 80.237-47.817v0.1c0.783-0.658 1.529-1.354 2.304-2.025 27.822-24.145 50.419-53.498 66.416-86.634-55.885 77.035-54.843 76.069-53.831 75.077 25.967-25.429 46.787-56.003 60.823-90.084-52.82 81.919-52.379 81.469-51.95 81.011 24.94-26.797 44.667-58.823 57.325-94.212-48.539 84.292-47.598 83.122-46.644 81.968 1.671-2.025 3.329-4.070 4.945-6.145 20.755-26.457 36.723-57.767 45.959-91.845-37.485 80.343-36.527 79.006-35.602 77.647 18.799-27.401 33.033-59.564 40.734-94.187-17.683 58.507-4.295 25.707 2.442-9.456-29.561 81.467-28.711 79.842-27.849 78.226 1.083-2.033 2.158-4.079 3.199-6.145 13.093-25.491 22.482-55.14 26.508-86.468-20.305 73.262-19.451 71.371-18.639 69.45 0.833-1.979 1.616-3.987 2.404-5.991 1.487-3.762 2.9-7.565 4.245-11.419 0.583-1.679 1.191-3.345 1.746-5.037 0.796-2.425 1.529-4.887 2.266-7.349 0.304-1.017 0.642-2.012 0.937-3.037l-0.037-0.025v-0.004c132.77 92.493 219.681 246.243 219.681 420.311-0.004 282.721-229.217 511.929-511.921 511.929zM734.243 317.373c-36.648-86.373-122.234-146.964-221.972-146.964-99.559 0-185.003 60.374-221.76 146.501-13.023-64.481-91.302-120.485-138.648-101.392 32.249 31.791 5.12 190.515 119.493 189.223-8.074 158.566 139.027 254.663 240.915 247.706 102.129 6.957 249.576-89.14 241.39-247.706 113.881 1.137 86.894-157.803 119.018-189.577-47.384-19.264-125.813 37.352-138.436 102.208zM753.661 404.747c8.186 158.566-139.265 254.663-241.39 247.706v-114.194c24.388-103.187 170.243-177.913 240.832-134.453-0.954-30.578-7.536-59.74-18.855-86.432 12.623-64.856 91.048-121.472 138.436-102.204-32.124 31.774-5.141 190.719-119.022 189.577zM512.271 538.258c-24.317-103.412-170.547-178.267-240.836-134.186 0.929-30.857 7.599-60.274 19.076-87.161 36.757-86.128 122.201-146.501 221.76-146.501 99.738 0 185.324 60.59 221.972 146.964 11.323 26.687 17.901 55.849 18.855 86.432-70.584-43.455-216.444 31.266-240.827 134.453zM512.271 538.258v114.194c-101.892 6.957-248.989-89.14-240.915-247.706-114.373 1.291-87.24-157.437-119.493-189.223 47.346-19.093 125.625 36.911 138.648 101.392-11.477 26.887-18.143 56.303-19.076 87.161 70.289-44.080 216.515 30.77 240.836 134.182zM756.189 59.357zM748.382 68.96c0.971-1.133 1.912-2.304 2.866-3.458-0.954 1.154-1.896 2.32-2.866 3.458zM763.713 49.192c0.95-1.337 1.908-2.675 2.833-4.033-0.925 1.362-1.883 2.695-2.833 4.033zM728.606 89.756c1.029-0.979 2.070-1.946 3.083-2.937-1.012 0.992-2.054 1.954-3.083 2.937zM739.259 79.108c0.433-0.454 0.875-0.904 1.304-1.362-0.429 0.458-0.871 0.908-1.304 1.362zM795.35-9.403zM739.263-74.879c67.561 33.943 124.326 79.865 169.619 135.499l-104.38-96.889c-57.211-40.319-125.164-69.637-198.626-83.263zM716.8 100.296c-23.446 19.826-50.392 35.973-80.237 47.817l0.412-0.162v-134.007h-251.292v133.124c1.846 0.75 3.704 1.479 5.57 2.2-31.699-12.19-60.228-29.149-84.807-50.225v-183.749c-55.305 24.489-102.77 56.118-143.912 94.446 191.313-118.563 268.296-137.618 349.741-137.618 81.462 0 158.458 19.064 226.83 52.921-47.861-24.102-103.504-41.314-162.236-48.552l139.931 223.807zM282.437 75.8zM785.072 13.602zM790.426 2.295c0.85-1.896 1.704-3.787 2.516-5.707-0.808 1.916-1.662 3.812-2.516 5.707zM779.273 24.583c0.892-1.596 1.741-3.22 2.604-4.837-0.862 1.616-1.712 3.241-2.604 4.837zM801.34-25.858c0.796-2.429 1.529-4.887 2.266-7.349-0.737 2.462-1.471 4.924-2.266 7.349zM771.579 37.461zM251.697-56.641zM251.48 34.89c0.304 0.496 0.637 0.971 0.946 1.466-0.308-0.496-0.642-0.971-0.946-1.466zM258.233 45.247c0.871 1.279 1.775 2.529 2.666 3.795-0.887-1.262-1.791-2.512-2.666-3.795zM452.905 166.135zM243.385 20.776c0.617 1.137 1.212 2.291 1.841 3.42-0.629-1.129-1.225-2.279-1.841-3.42zM237.374 8.986zM552.373 168.943c1.325-0.15 2.637-0.333 3.958-0.496-1.321 0.162-2.633 0.342-3.958 0.496zM439.383 163.548c2.22 0.475 4.466 0.9 6.707 1.329-2.241-0.433-4.487-0.854-6.707-1.329zM467.266 168.277c1.837 0.242 3.67 0.492 5.52 0.7-1.85-0.204-3.679-0.458-5.52-0.7zM285.437-74.959zM301.518 94.718zM292.657 86.415c1.454 1.433 2.95 2.825 4.437 4.224-1.487-1.4-2.983-2.791-4.437-4.224zM273.222 65.173c1.083 1.312 2.15 2.637 3.258 3.929-1.104-1.291-2.175-2.612-3.258-3.929zM265.457 55.312zM395.569 150.905zM407.7 155.066c2.504 0.804 5.003 1.612 7.545 2.358-2.541-0.746-5.041-1.55-7.545-2.358zM419.911 158.724zM227.288-14.61c0.092 0.246 0.196 0.479 0.287 0.725-0.096-0.246-0.196-0.479-0.287-0.725zM610.788 157.079c1.075-0.321 2.133-0.667 3.199-1-1.066 0.333-2.125 0.679-3.199 1zM580.851 164.477c1.171-0.233 2.35-0.446 3.516-0.696-1.166 0.25-2.345 0.467-3.516 0.696zM623.574 152.942c1.25-0.433 2.495-0.875 3.733-1.316l-3.733 1.316zM719.1 98.371zM221.926-30.487c0.371 1.204 0.725 2.416 1.112 3.608-0.387-1.187-0.742-2.4-1.112-3.608zM566.441 167.039zM232.058-2.725c0.517 1.208 1.058 2.4 1.587 3.604-0.529-1.204-1.071-2.395-1.587-3.604zM385.679 13.944h251.292v134.007l-0.412 0.162c-26.043 10.677-56.214 18.054-87.737 20.671 50.722-7.25 22.91-1.403-5.98 0.492 70.075-12.864 69.016-12.518 67.942-12.197-24.020 7.453-51.771 12.281-80.472 13.413 52.885-6.46 51.702-6.247 50.531-6.014-17.313 3.644-37.377 5.937-57.904 6.347 28.003-1.286 9.987 0.263-8.347 0.492 40.409-2.71 39.097-2.527 37.772-2.377-11.752 1.441-25.442 2.305-39.318 2.385l-26.526-1.031c-4.624-0.346-9.199-0.8-13.739-1.316-1.85-0.208-3.683-0.458-5.52-0.7-19.046-2.449-36.014-6.090-52.44-10.989 35.793 8.448 33.527 8.027 31.264 7.585-2.241-0.433-4.491-0.854-6.707-1.329-2.054-0.437-4.079-0.933-6.112-1.408-26.98-6.377-50.641-15.127-72.845-26.341 57.927 22.496 56.361 22.087 54.815 21.629-2.537-0.75-5.041-1.554-7.545-2.358-1.562-0.504-3.124-1.004-4.674-1.529-2.504-0.85-4.991-1.729-7.457-2.633-1.45-0.533-2.883-1.087-4.32-1.641-1.871-0.721-3.729-1.454-5.57-2.2v-133.12zM512.271 132.624c0.001 0 0.001 0 0.002 0 8.413 0 15.233-6.82 15.233-15.233 0-8.412-6.819-15.232-15.231-15.233-0.001-0-0.001-0-0.002-0-8.413 0-15.233 6.82-15.233 15.233 0 8.412 6.819 15.232 15.231 15.233zM512.271 77.358c0 0 0 0 0 0 8.414 0 15.235-6.821 15.235-15.235 0-8.414-6.821-15.235-15.235-15.235-0 0-0 0-0 0-8.414 0-15.235 6.821-15.235 15.235 0 8.414 6.821 15.235 15.235 15.235zM306.442 99.042l-0.046-0.037c-1.646-1.412-3.27-2.845-4.878-4.287-1.496-1.341-2.962-2.708-4.428-4.079-1.487-1.4-2.983-2.791-4.437-4.224-1.791-1.758-3.533-3.558-5.274-5.366-26.697-27.58-47.833-60.725-61.481-97.506 49.471 84.266 48.404 82.946 47.321 81.634-20.831-24.957-37.001-54.61-46.684-87.061 37.365 75.133 35.853 73.042 34.361 70.93-0.892-1.266-1.796-2.516-2.666-3.795-19.26-27.935-33.828-60.744-41.686-96.080 35.566 86.694 35.237 86.219 34.929 85.719-17.288-27.653-30.118-60.013-36.529-94.627 29.646 82.808 29.051 81.654 28.434 80.517-14.929-27.035-25.6-58.586-30.14-92.085 19.875 70.985 19.329 69.793 18.817 68.585-10.94-24.938-18.594-53.855-21.496-84.159 16.921 72.752 16.817 72.519 16.726 72.273-9.079-23.633-15.287-50.996-17.363-79.505 12.727 66.049 12.372 64.837 12.002 63.633-0.604-1.95-1.233-3.883-1.8-5.849l1.208-0.837c9.882-6.828 19.997-13.331 30.362-19.468l0.65-0.383c52.097-31.303 113.071-54.099 178.151-64.655-97.175 22.609-41.564 5.388 17.129-1.893l-141.18 222.606zM804.54-36.244c-0.292 1.025-0.629 2.021-0.937 3.037-0.737 2.462-1.471 4.92-2.266 7.349-0.554 1.691-1.162 3.358-1.746 5.037-9.896 28.090-22.949 52.435-39.113 74.344 34.081-60.925 33.297-58.913 32.464-56.934-0.812 1.921-1.666 3.812-2.516 5.707-13.276 29.413-30.404 54.629-51.124 76.395 28.465-31.365 6.727-2.579-19.128 21.903 60.837-79.226 59.987-77.602 59.096-76.006-18.076 31.82-40.968 58.692-68.028 80.624 40.761-36.993 16.46-11.153-11.854 9.521 66.234-68.206 65.276-66.873 64.326-65.532-20.453 28.84-45.759 52.771-74.949 71.084 44.425-31.68 16.402-7.553-15.519 10.482 77.045-64.103 76.108-62.932 75.133-61.799-23.891 27.948-52.939 50.712-85.774 66.986l76.655-56.837c-26.067 27.552-57.473 49.751-92.602 64.986 84.020-56.283 82.978-55.317 81.949-54.338-26.305 25.063-57.822 44.923-92.73 57.766 82.453-48.476 81.707-47.78 80.924-47.122v-185.666c55.458 24.377 103.059 55.957 144.313 94.277-54.222-49.897 2.595-3.925 47.931 51.767-104.528-97.048-104.516-97.040-104.503-97.031zM497.036 117.389c-0-0-0-0-0-0 0-8.414 6.821-15.235 15.235-15.235 8.414 0 15.235 6.821 15.235 15.235 0 0 0 0 0 0 0 0 0 0 0 0 0 8.414-6.821 15.235-15.235 15.235-8.414 0-15.235-6.821-15.235-15.235 0-0 0-0 0-0zM497.036 62.123c-0-0-0-0-0-0 0-8.414 6.821-15.235 15.235-15.235 8.414 0 15.235 6.821 15.235 15.235 0 0 0 0 0 0 0 0 0 0 0 0 0 8.414-6.821 15.235-15.235 15.235-8.414 0-15.235-6.821-15.235-15.235 0-0 0-0 0-0z"  horiz-adv-x="1024" />
      
      <glyph glyph-name="icon-test1" unicode="&#58984;" d="M512.002 896c-282.62 0-511.765-229.145-511.765-511.765 0-174.074 86.948-327.833 219.761-420.282 25.884 90.134 91.287 158.032 180.288 189.034 3.707 1.295 7.455 2.52 11.245 3.682 0.6 0.183 1.191 0.383 1.795 0.562 24.017 7.488 51.762 12.336 80.463 13.467-52.472-6.404-51.53-6.229-50.597-6.041 18.148 3.817 39.182 6.219 60.7 6.651-31.277-1.633-14.185-0.151 3.212 0.066-37.507-2.486-36.262-2.315-35.004-2.173 11.611 1.427 25.135 2.283 38.843 2.362l27.031-1.004c4.756-0.354 9.454-0.82 14.123-1.349 1.32-0.154 2.628-0.333 3.94-0.5 19.621-2.474 37.096-6.142 54.032-11.074-36.224 8.4-32.834 7.776-29.473 7.105 1.149-0.229 2.316-0.441 3.457-0.683 9.008-1.895 17.825-4.131 26.446-6.709 1.066-0.317 2.116-0.662 3.178-0.991 3.224-1 6.426-2.045 9.591-3.14 89.284-30.882 154.904-98.838 180.9-189.146 132.722 92.466 219.603 246.166 219.603 420.173-0.008 282.616-229.149 511.756-511.769 511.756zM512.002 170.679c-130.373 0-236.491 103.561-240.743 232.897-0.146 0.092-0.292 0.167-0.437 0.258-4.994 93.353 43.813 165.066 105.597 206.972 0.358 0.246 0.704 0.5 1.062 0.741 2.357 1.583 4.748 3.082 7.138 4.577 0.937 0.587 1.853 1.199 2.799 1.77 38.041 23.106 79.897 35.18 116.717 34.48 2.62 0.087 5.231 0.2 7.871 0.2 2.507 0 4.977-0.112 7.467-0.187 28.237 0.487 59.406-6.534 89.563-20.212 39.976-17.912 73.074-45.002 97.641-78.706 14.311-3.76 50.674-68.518 46.272-149.635l-0.2-0.117c-4.186-129.399-110.328-233.039-240.748-233.039zM376.414 610.806c0.354 0.242 0.704 0.504 1.062 0.741-0.358-0.242-0.704-0.5-1.062-0.741zM519.465 652.387c-2.491 0.075-4.96 0.187-7.467 0.187-2.64 0-5.252-0.112-7.871-0.2 2.524-0.050 5.044-0.104 7.517-0.271 2.836 0.185 6.151 0.291 9.492 0.293zM472.279 509.274c-46.308-81.238-124.763-153.205-201.024-105.697 4.252-129.336 110.37-232.897 240.743-232.897 130.419 0 236.566 103.64 240.748 233.039-63.725-39.661-230.815 17.875-280.467 105.556zM384.615 616.125c0.937 0.583 1.857 1.199 2.799 1.77-0.95-0.575-1.862-1.187-2.799-1.77zM609.028 632.175c41.836-19.317 76.501-47.936 102.429-83.353-71.686 71.27-110.119 90.829-152.561 99.25zM453.975 166.64zM610.498 157.344c1.066-0.317 2.116-0.662 3.178-0.991-1.062 0.329-2.112 0.675-3.178 0.991zM440.381 164.099c0.933 0.196 1.874 0.371 2.807 0.558-0.937-0.187-1.878-0.362-2.807-0.558zM411.527 156.669c0.6 0.183 1.191 0.383 1.795 0.562-0.604-0.179-1.195-0.379-1.795-0.562zM566.165 167.298zM623.263 153.212c0.733-0.254 1.458-0.512 2.182-0.77-6.018-16.77-15.069-31.132-26.591-43.097 33.276-5.41 28.973-120.503 3.214-102.412l-90.075 63.396 2.957 2.078c-0.983-0.025-1.966-0.075-2.957-0.075-1.033 0-2.053 0.054-3.078 0.079l2.961-2.082-90.075-63.396c-25.901-18.125-30.19 97.405-12.877 123.535-8.39 13.67-14.193 29.818-16.297 47.108 6.509-24.989 7.076-24.785 7.651-24.589-89.001-30.998-154.404-98.9-180.288-189.034 82.82-57.653 183.457-91.483 292.003-91.483 108.617 0 209.316 33.876 292.161 91.591-25.984 90.308-91.604 158.269-180.892 189.151zM580.596 164.736c1.149-0.229 2.316-0.441 3.457-0.683-1.141 0.242-2.303 0.458-3.457 0.683zM468.339 168.726c1.254 0.154 2.499 0.329 3.757 0.471-1.258-0.142-2.503-0.312-3.757-0.471zM552.092 169.209c1.32-0.15 2.628-0.333 3.94-0.5-1.312 0.162-2.615 0.342-3.94 0.5zM408.929 130.473c3.44 5.189 7.73 6.872 12.877 3.253l87.114-61.313c1.029-0.025 2.045-0.079 3.078-0.079 0.991 0 1.974 0.050 2.957 0.075l87.118 61.318c5.173 3.652 9.475 1.912 12.919-3.39 8.431 13.702 14.261 29.893 16.372 47.232l-8.096-24.351c-23.801 8.521-51.353 14.318-79.976 16.197 69.322-12.728 68.273-12.382 67.206-12.066-24.037 7.459-51.806 12.292-80.527 13.424 52.94-6.473 51.774-6.261 50.624-6.032-17.897 3.761-38.598 6.084-59.782 6.422 33.91-2.286 32.603-2.103 31.282-1.953-11.922 1.452-25.81 2.323-39.886 2.404l-25.942-1.055c-14.679-1.126-27.925-2.927-40.919-5.436 25.493 3.937 24.247 3.762 22.994 3.608-22.65-2.842-43.025-7.435-62.617-13.77 36.529 9.51 35.588 9.335 34.659 9.139-29.616-6.292-55.799-15.625-80.237-27.917 52.575 20.87 51.983 20.67 51.383 20.487-3.79-1.158-7.538-2.386-11.245-3.682-0.571-0.196-1.141-0.4-1.712-0.604 6.008-16.712 15.026-31.026 26.503-42.958zM602.073 133.725l-90.075-63.396 90.075-63.396c25.759-18.092 30.061 97.001 12.919 123.397-3.44 5.306-7.742 7.047-12.919 3.394zM421.806 133.725c-5.148 3.619-9.437 1.937-12.877-3.253-17.313-26.13-13.023-141.66 12.877-123.535l90.075 63.396-90.075 63.392zM472.279 509.274c49.652-87.681 216.742-145.217 280.467-105.556l0.2 0.117c4.402 81.117-31.964 145.875-82.187 188.963-32.88 28.326-73.4 48.698-118.045 57.657 26.163-4.602-5.006 2.42-33.243 1.932-2.628-0.046-5.248-0.108-7.821-0.283 8.338-29.52-8.267-88.264-39.369-142.83zM472.279 509.274c31.102 54.571 47.711 113.31 39.369 142.83-2.704 0.177-5.866 0.278-9.051 0.279-35.287 0.691-77.143-11.383-115.184-34.489-0.941-0.571-1.862-1.187-2.799-1.77-2.391-1.495-4.781-2.994-7.138-4.577-0.358-0.242-0.704-0.5-1.062-0.741-61.784-41.906-110.591-113.619-105.597-206.972 0.146-0.092 0.292-0.167 0.437-0.258 76.261-47.507 154.716 24.46 201.024 105.697z"  horiz-adv-x="1024" />
      
      <glyph glyph-name="dkw_geren" unicode="&#58958;" d="M512 853.333333a469.333333 469.333333 0 1 1 469.333333-469.333333A469.333333 469.333333 0 0 1 512 853.333333z m0-896a424.533333 424.533333 0 0 0-279.466667 104.96 298.666667 298.666667 0 0 0 558.933334 0A424.533333 424.533333 0 0 0 512-42.666667z m-149.333333 490.666667a149.333333 149.333333 0 1 0 149.333333-149.333333 149.333333 149.333333 0 0 0-149.333333 149.333333z m461.866666-353.493333a341.333333 341.333333 0 0 1-213.333333 189.226666 192 192 0 1 1-197.973333 0 341.333333 341.333333 0 0 1-213.333334-189.226666 426.666667 426.666667 0 1 0 624.64 0z"  horiz-adv-x="1024" />
      
      <glyph glyph-name="xiugaitouxiang" unicode="&#59008;" d="M773.184 703.232l-6.208 21.888-9.536 34.24c-7.68 45.76-37.248 76.416-68.48 76.416h-353.92c-31.232 0-60.8-30.656-69.184-79.68l-14.976-52.864H126.464c-36.096 0-66.24-32.128-66.24-72.64v-625.664c0-40.576 30.08-72.704 66.24-72.704h771.072c36.096 0 66.24 32.128 66.24 72.704V630.592c0 40.512-30.08 72.64-66.24 72.64H773.12z m45.504 60.224h78.848c70.272 0 126.464-59.904 126.464-132.864v-625.664c0-72.96-56.192-132.928-126.464-132.928H126.464C56.192-128 0-68.096 0 4.928V630.592c0 72.96 56.192 132.864 126.464 132.864H205.44l1.728 5.824C219.328 841.984 271.552 896 334.976 896h354.048c63.424 0 115.648-54.016 127.104-123.456l2.56-9.088zM512 70.4a224 224 0 1 0 0 448 224 224 0 0 0 0-448z m0 64a160 160 0 1 1 0 320 160 160 0 0 1 0-320zM800 552.512a32 32 0 1 0 0 64h64a32 32 0 1 0 0-64h-64z"  horiz-adv-x="1024" />
      
      <glyph glyph-name="touxiang1" unicode="&#58959;" d="M512 896a512 512 0 1 1 512-512A512 512 0 0 1 512 896zM213.333 64A298.667 298.667 0 0 0 512 362.667a170.667 170.667 0 1 0 170.667 170.666A170.667 170.667 0 0 0 512 362.667 298.667 298.667 0 0 0 810.667 64z"  horiz-adv-x="1024" />
      
      <glyph glyph-name="touxiang3" unicode="&#58962;" d="M230.36424-20.462013999999954a102.584075 102.584075 0 0 0-50.392178 17.997207l-4.679273 2.879553a35.994412 35.994412 0 0 0-16.197486 15.477597 43.193295 43.193295 0 0 0 11.158268 42.833351 328.98893 328.98893 0 0 0 157.295582 86.026645h12.957989a102.94402 102.94402 0 0 1 17.277318 7.198883 35.994412 35.994412 0 0 1 14.397765 16.197486 14.757709 14.757709 0 0 0 19.436982 6.478994 14.397765 14.397765 0 0 0 6.838939-19.077039 68.029439 68.029439 0 0 0-25.915977-28.435586 104.023852 104.023852 0 0 0-22.67648-9.358547h-2.879553a39.953798 39.953798 0 0 0-10.798324-2.879553h-2.519609a300.553344 300.553344 0 0 1-143.977649-77.747931 21.236703 21.236703 0 0 1-5.399162-11.878156s2.519609 0 3.959385-1.79972l5.039218-2.879553c10.43838-7.198882 20.516815-21.956592 33.474803-24.116257s15.837541-9.358547 16.197486-17.277318a33.834748 33.834748 0 0 0 3.599441-3.599441c0-7.918771-7.918771 2.519609-15.837541 2.159665H230.36424zM777.839253-20.462013999999954c-7.918771 0-3.959385-12.957988-3.959386-5.039217a14.757709 14.757709 0 0 0 11.878156 14.397765l15.477598 1.79972c15.837541 0 21.236703 23.396368 35.994412 28.075642a18.717094 18.717094 0 0 1 0 17.997206 65.509831 65.509831 0 0 1-20.156871 20.876759l-9.718491 7.918771a113.022455 113.022455 0 0 1-18.717095 13.677877 29.875362 29.875362 0 0 1-9.718491 0 40.313742 40.313742 0 0 0-31.315139 11.878156 42.113463 42.113463 0 0 0-6.838938 10.798324l-2.159665 4.319329h-12.957988a60.470613 60.470613 0 0 0-16.197486 0 218.126139 218.126139 0 0 0-21.956592 5.759106l-16.917373 4.679274a84.946813 84.946813 0 0 0-22.67648 7.918771l-3.959386 2.159664a22.67648 22.67648 0 0 0-13.677876 23.396368 14.397765 14.397765 0 0 0 13.317932 15.477598 14.757709 14.757709 0 0 0 15.477598-13.317933l3.599441-2.159665a54.351563 54.351563 0 0 1 14.757709-4.679273l17.997206-5.039218c6.838938-2.159665 13.317933-3.959385 20.156871-5.399162h10.078436a44.993016 44.993016 0 0 0 33.114859-8.638659 35.994412 35.994412 0 0 0 8.278715-12.598044l2.159665-3.959386s5.039218 0 10.798323-2.159664a61.550445 61.550445 0 0 0 19.796927-3.239497 122.740946 122.740946 0 0 0 26.275921-18.357151l8.278715-6.838938a88.906199 88.906199 0 0 0 28.79553-31.315139c8.638659-15.837541 0-20.516815-11.158268-35.994412a71.988825 71.988825 0 0 0-57.59106-32.754916l-13.677876-1.79972zM443.091217 415.790265h-43.913183a14.397765 14.397765 0 0 0-13.317933 15.477597 14.757709 14.757709 0 0 0 15.477598 13.317933 593.547861 593.547861 0 0 1 66.949607 0 14.397765 14.397765 0 0 0 14.757709-14.037821 14.037821 14.037821 0 0 0-13.677877-14.757709zM616.944229 415.790265h-2.159665a251.960887 251.960887 0 0 1-69.82916 0 14.757709 14.757709 0 0 0-16.55743 12.2381 14.397765 14.397765 0 0 0 12.238101 16.197486 272.837646 272.837646 0 0 0 78.467819 0 14.397765 14.397765 0 0 0-2.159665-28.79553zM514.000209 241.93725300000006a99.344578 99.344578 0 0 0-46.072847 11.158268 14.037821 14.037821 0 0 0-6.478995 19.077038 14.397765 14.397765 0 0 0 19.436983 6.478995 75.94821 75.94821 0 0 1 68.749328 0 14.397765 14.397765 0 1 0 14.037821-25.196089 102.224131 102.224131 0 0 0-49.67229-11.518212zM435.53239 394.193618a14.397765 14.397765 0 0 0-14.03782 11.518212 65.869775 65.869775 0 0 0 0 23.756312 14.397765 14.397765 0 0 0 16.197485 12.2381 14.757709 14.757709 0 0 0 12.598044-15.837541 30.595251 30.595251 0 0 1 0-14.037821 14.757709 14.757709 0 0 0-11.158267-17.277318zM581.669705 395.993338a15.117653 15.117653 0 0 0-14.397765 11.518212 40.673686 40.673686 0 0 0 0 14.757709v4.679274a14.037821 14.037821 0 0 0 10.798324 16.917374 14.397765 14.397765 0 0 0 16.917373-11.158268 40.673686 40.673686 0 0 0 0-14.757709 21.236703 21.236703 0 0 1 0-4.679274 14.037821 14.037821 0 0 0-10.798323-16.917374h-3.239497zM508.960992 52.24670000000003a153.336197 153.336197 0 0 0-21.956592 0 205.528095 205.528095 0 0 0-135.338991 71.988824 14.397765 14.397765 0 0 0 22.316536 18.717095 174.932844 174.932844 0 0 1 116.261952-61.91039 165.574297 165.574297 0 0 1 116.981841 30.235307 14.757709 14.757709 0 0 0 20.516815-2.159665 14.397765 14.397765 0 0 0-2.159665-20.156871 191.490274 191.490274 0 0 0-116.621896-36.7143zM513.280321-24.061455000000024a235.403457 235.403457 0 0 0-45.352959 4.31933 194.009883 194.009883 0 0 0-154.056086 138.218543 14.397765 14.397765 0 1 0 26.99581 10.078436c35.994412-89.626087 86.38659-110.86279 132.819382-119.861394 67.669495-13.317933 156.935638 7.198882 193.289994 83.147093a14.397765 14.397765 0 1 0 25.915977-12.2381 192.210162 192.210162 0 0 0-179.612118-103.663908zM441.291496 465.822498a41.393574 41.393574 0 0 0-21.596647 5.759106l-6.838938 5.759106-2.519609 2.159665a62.270334 62.270334 0 0 1-21.596648 0h-16.557429l-39.953798 2.159665h-8.998603a350.225633 350.225633 0 0 0-43.193295 3.959385 395.938537 395.938537 0 0 0-77.387987 22.316536c-12.2381 4.679274-38.154077 14.037821-41.393574 35.994412s18.717094 43.553239 32.754915 50.752122A227.484687 227.484687 0 0 0 259.159769 614.479422a14.397765 14.397765 0 0 0 16.917374-11.518212 14.397765 14.397765 0 0 0-11.518212-16.55743 198.689157 198.689157 0 0 1-57.231115-17.277318 31.315139 31.315139 0 0 1-17.277318-19.077039s0-5.759106 22.676479-13.317932a375.781666 375.781666 0 0 1 71.988825-20.876759 299.473511 299.473511 0 0 1 39.953798-3.599442h8.998603l40.673686-2.519608h12.957989a71.988825 71.988825 0 0 0 38.154077-5.039218L431.932949 499.297302s0-1.799721 2.519609-2.159665 5.399162-2.879553 17.997206 0a289.75502 289.75502 0 0 0 76.668099 6.838939h17.277318c25.196089 0 117.701729 6.478994 138.938432 10.798323l28.435585 5.399162c12.957988 2.159665 26.275921 4.319329 35.994413 6.838938a140.018264 140.018264 0 0 1 23.756312 7.558827l9.718491 3.599441c7.198882 2.519609 25.915977 8.998603 28.075642 14.037821s-5.759106 17.637262-15.837541 23.036424a69.82916 69.82916 0 0 1-17.277318 5.759106A51.112066 51.112066 0 0 0 740.04512 607.280539a14.397765 14.397765 0 1 0 26.995809 10.078436c1.799721-4.679274 8.998603-6.838938 20.876759-9.718492a93.945416 93.945416 0 0 0 23.756312-8.638659 48.952401 48.952401 0 0 0 28.79553-58.310948c-6.478994-17.277318-28.435586-25.196089-44.273127-30.955194l-10.43838-3.599442a185.371224 185.371224 0 0 0-27.355753-8.638659c-11.518212-2.519609-25.196089-5.039218-38.514021-7.198882l-27.355754-5.039218c-25.196089-5.039218-120.581282-11.158268-143.97765-11.518212h-17.637262a266.718596 266.718596 0 0 1-69.469216-5.759106 84.226925 84.226925 0 0 0-20.156871-2.159665zM287.955299 544.650262a14.397765 14.397765 0 0 0-14.397765 14.397765 20.876759 20.876759 0 0 0 0 6.478994l7.558827 14.397765a381.900716 381.900716 0 0 1 19.796927 44.633071A146.857203 146.857203 0 0 0 329.708818 679.269364a4.679274 4.679274 0 0 1 0 3.239497v2.879553A33.114859 33.114859 0 0 0 323.949712 700.506067a33.114859 33.114859 0 0 0 17.997206 24.836145 25.556033 25.556033 0 0 1 5.039218 3.599441 84.586869 84.586869 0 0 1 8.278715 11.518212 126.340388 126.340388 0 0 0 16.557429 20.156871A100.064467 100.064467 0 0 0 503.921774 768.175563a173.133124 173.133124 0 0 0 68.749328 24.4762 89.986031 89.986031 0 0 0 27.715697-3.239497h5.039218a75.588266 75.588266 0 0 0 35.994413-20.516815 282.196193 282.196193 0 0 0 71.988824-107.983237 474.7663 474.7663 0 0 0 26.99581-93.945417 14.397765 14.397765 0 1 0-28.435586-5.039217A451.009988 451.009988 0 0 1 683.893836 649.753946a264.558931 264.558931 0 0 1-63.350166 97.184913 50.032233 50.032233 0 0 1-21.236703 12.957989h-6.11905a100.064467 100.064467 0 0 1-17.277318 4.319329 165.574297 165.574297 0 0 1-65.509831-25.196088 14.397765 14.397765 0 0 0-15.117653 0c-42.473407 26.995809-75.228322 27.355753-102.94402 0a87.106478 87.106478 0 0 1-12.598044-15.837542c-3.239497-4.679274-6.478994-9.358547-10.078435-13.677877a55.071451 55.071451 0 0 0-11.158268-9.358547l-4.679274-3.239497a55.431395 55.431395 0 0 0 2.879553-6.838938 33.474804 33.474804 0 0 0-5.759106-30.595251 124.900611 124.900611 0 0 1-22.67648-44.633071 384.420325 384.420325 0 0 0-21.236703-48.232513c-2.519609-4.319329-5.039218-9.358547-7.198882-14.037821a14.757709 14.757709 0 0 0-11.878157-7.91877zM557.553449 596.482215h-48.592457c-16.197486 0-30.595251 2.159665-43.553239 3.599442l-42.473407 3.239497a14.037821 14.037821 0 0 0-13.677877 14.757709 14.757709 14.757709 0 0 0 14.757709 14.037821c17.277318 0 30.595251 0 43.553239-3.239497s25.915977-2.519609 42.473407-3.239497a633.861603 633.861603 0 0 1 78.467819 0 628.462441 628.462441 0 0 1 107.983238 23.036423 14.397765 14.397765 0 0 0 17.637262-10.078435 14.037821 14.037821 0 0 0-10.078436-17.637262 611.905011 611.905011 0 0 0-114.102287-23.756312c-10.078435-0.359944-21.236703-0.719888-32.394971-0.719889zM357.424515 610.8799799999999h-3.599441c-11.158268 2.879553-22.316536 5.399162-33.474803 7.198883a14.397765 14.397765 0 0 0-11.878156 16.55743A14.757709 14.757709 0 0 0 323.949712 646.874393c11.878156-2.159665 23.756312-4.679274 35.994412-7.558827a14.397765 14.397765 0 0 0 10.798324-17.277318 14.757709 14.757709 0 0 0-13.317933-11.158268zM477.645853 130.35457399999996h-2.879553A121.30117 121.30117 0 0 0 395.938537 189.02546700000005a350.945521 350.945521 0 0 0-27.715698 51.112065 376.501554 376.501554 0 0 1-23.756312 43.193295 163.054688 163.054688 0 0 0-17.997206 56.151284A119.501449 119.501449 0 0 0 287.955299 398.872891a60.470613 60.470613 0 0 0 7.198883 61.190501 14.397765 14.397765 0 0 0 18.35715 3.239497 13.677877 13.677877 0 0 0 5.039218-19.436982c-8.998603-15.837541-10.798324-22.316536-5.399162-35.994413 12.957988-32.035027 24.836145-44.993016 28.435586-46.072848a13.677877 13.677877 0 0 0 12.2381-12.598044 143.97765 143.97765 0 0 1 15.117653-52.191898 438.771888 438.771888 0 0 0 24.476201-46.432792 351.665409 351.665409 0 0 1 25.556033-47.15268 96.105081 96.105081 0 0 1 58.670892-45.712904 83.507037 83.507037 0 0 1 13.317933 4.679274 60.470613 60.470613 0 0 0 21.236703 6.11905 60.830557 60.830557 0 0 0 23.756312-4.679274 16.197486 16.197486 0 0 1 12.957989 0 119.861393 119.861393 0 0 1 35.994412 23.036424 210.207369 210.207369 0 0 1 71.988825 125.260555c0 5.399162 2.879553 10.43838 4.679273 15.837542a77.028043 77.028043 0 0 1 5.759106 23.396368 15.117653 15.117653 0 0 0 7.198883 12.2381 68.389384 68.389384 0 0 1 30.235306 51.112066 111.222734 111.222734 0 0 1 1.799721 35.994412 14.397765 14.397765 0 0 0 28.435586 6.11905 126.340388 126.340388 0 0 0-1.799721-44.993015 96.105081 96.105081 0 0 0-35.994412-67.309552 143.97765 143.97765 0 0 0-6.478994-24.4762 71.988825 71.988825 0 0 1-3.959386-12.598044 240.442675 240.442675 0 0 0-82.06726-140.738153 141.458041 141.458041 0 0 0-46.072848-28.435586 42.113463 42.113463 0 0 0-32.394971 0 35.994412 35.994412 0 0 1-13.317933 2.879553l-10.798324-3.959385a71.988825 71.988825 0 0 0-24.4762-6.838939zM860.626401 63.764910999999984a467.927362 467.927362 0 0 1 126.340388 320.710215 461.808311 461.808311 0 0 1-52.911786 215.966475 17.637262 17.637262 0 0 0 0 14.757709 18.35715 18.35715 0 0 0 9.718491 11.518212 20.516815 20.516815 0 0 0 26.635865-8.278715 508.960992 508.960992 0 0 0-79.907595-582.389593l-68.02944-61.190501A514.000209 514.000209 0 0 0 0 384.475126a507.521215 507.521215 0 0 0 85.306757 281.83625 20.156871 20.156871 0 0 0 27.355754 5.399161 18.717094 18.717094 0 0 0 5.399162-28.435585A470.087026 470.087026 0 0 1 251.960887-8.583856999999966a475.846132 475.846132 0 0 1 546.035237 15.837541z m49.312345 593.547861a19.436983 19.436983 0 0 0-15.837541 7.918771 475.846132 475.846132 0 0 1-673.455457 89.986031 20.516815 20.516815 0 0 0-28.075642 3.239497 19.796927 19.796927 0 0 0 3.599442 28.79553 515.080042 515.080042 0 0 0 729.60674-98.62469 19.436983 19.436983 0 0 0-3.959386-27.355753 18.35715 18.35715 0 0 0-11.878156-3.959386zM150.0967 697.626514a18.35715 18.35715 0 0 0-12.957989 5.399162 17.637262 17.637262 0 0 0-6.478994 12.2381 19.796927 19.796927 0 0 0 33.11486 15.477598 19.796927 19.796927 0 0 0-13.677877-35.994413z"  horiz-adv-x="1030" />
      
      <glyph glyph-name="biaoqian" unicode="&#58925;" d="M934.912 379.904q23.552-26.624 19.456-49.664t-26.624-46.592l-324.608-327.68q-8.192-7.168-19.456-11.264t-23.04-4.608-23.04 2.56-18.432 10.24q-121.856 122.88-218.112 220.16l-80.896 80.896q-39.936 39.936-71.168 71.68t-51.2 51.2-20.992 21.504q-3.072 4.096-10.752 14.848t-6.656 25.088l0 19.456 0 40.96q0 23.552 0.512 52.736t0.512 58.88q1.024 70.656 2.048 156.672 2.048 13.312 6.144 24.064t15.36 22.016q10.24 11.264 22.016 16.384t22.016 5.12l329.728 0q2.048 0 9.216-0.512t10.24-1.536q6.144-2.048 11.264-5.12t10.24-8.192zM217.088 578.56q40.96 0 69.12 28.672t28.16 69.632-28.16 69.632-69.12 28.672q-20.48 0-37.888-7.68t-30.72-20.992-20.992-31.232-7.68-38.4 7.68-38.4 20.992-31.232 30.72-20.992 37.888-7.68z"  horiz-adv-x="1024" />
      
      <glyph glyph-name="biaoji" unicode="&#58994;" d="M516.736 488.128c18.496-11.584 41.152-27.072 62.208-42.048 41.664-29.568 201.472-18.176 266.688-23.488C910.784 417.344 960 402.944 960 402.944l-90.88 150.784c0 0 98.496 147.776 86.336 144.704-12.032-3.072-73.408-4.544-113.6 6.784s-132.608 12.096-195.52 12.096c-46.656 0-103.424 40.128-129.536 60.8L516.8 828.736 443.2 828.736l0-784.96 73.536 0L516.736 488.128zM619.904 215.36l0-55.296c105.024-14.08 177.536-44.16 177.536-79.04 0-48.384-139.2-87.616-310.784-87.616s-310.72 39.232-310.72 87.616c0 34.176 69.696 63.744 171.2 78.208l0 55.488C182.272 195.392 64 142.72 64 81.024c0-78.336 189.184-141.76 422.656-141.76s422.656 63.424 422.656 141.76C909.248 143.552 787.968 196.672 619.904 215.36z"  horiz-adv-x="1024" />
      
      <glyph glyph-name="dianhuahaoma" unicode="&#58926;" d="M166.16911 380.873712c0 139.751721-0.04605 279.503443 0.020467 419.250047C166.220277 854.370739 191.501764 879.631759 245.963644 879.657343c163.610773 0.086983 327.221546 0.07675 490.832319 0.005117 52.829661-0.020467 79.743367-25.127987 79.820117-77.594364 0.414451-282.056663 0.419567-564.113326-0.01535-846.16999-0.081867-51.274192-27.00069-76.918963-77.896247-76.970129-165.314625-0.163734-330.629251-0.163734-495.943876-0.005117-50.649958 0.051167-76.514745 26.396922-76.555679 77.58413C166.097477 97.962564 166.16911 239.418138 166.16911 380.873712zM786.494219 494.100595c0 101.407365 0.0921 202.81473-0.04605 304.216979-0.056283 40.109609-11.983251 52.10821-51.299775 52.12356-162.761405 0.051167-325.52281 0.051167-488.284215 0.005117-39.173257-0.010233-51.739809-12.484685-51.760276-52.072393-0.097217-204.518583-0.086983-409.032049-0.005117-613.550632 0.010233-31.237296 1.918753-32.956498 33.693299-32.961615 174.693489-0.040933 349.381862-0.040933 524.075351 0 31.86153 0.005117 33.534682 1.478719 33.580733 32.905332C786.591436 287.878159 786.499335 390.989377 786.494219 494.100595zM490.934652 117.416159c-88.574746 0-177.15461-0.3377-265.729356 0.2456-21.387698 0.143267-31.037745-7.040544-30.469795-29.681827 1.115435-44.259231 0.010233-88.56963 0.440034-132.854445 0.317234-32.787648 14.331804-46.935252 46.490101-46.965952 166.082127-0.158617 332.164253-0.1535 498.24638-0.005117 32.838815 0.0307 46.116584 13.272653 46.464518 46.577085 0.455384 43.43033-0.854485 86.901594 0.501434 130.296108 0.767501 24.524219-8.488562 33.023015-32.767181 32.762065C666.390526 116.858442 578.660031 117.421276 490.934652 117.416159zM491.69192-22.744896c-20.057363-0.363284-39.904942 18.113027-40.67756 37.878739-0.946585 24.084185 14.178304 40.529176 38.037356 41.358077 25.762454 0.895418 41.839045-14.464838 41.890211-40.017509C530.977744-3.526668 512.117684-22.371379 491.69192-22.744896z"  horiz-adv-x="1024" />
      
      <glyph glyph-name="web" unicode="&#58931;" d="M512 853.333c-259.2 0-469.333-210.133-469.333-469.333s210.133-469.333 469.333-469.333c259.2 0 469.333 210.133 469.333 469.333 0 259.2-210.133 469.333-469.333 469.333zM385.365 791.552c-9.195-9.621-17.941-20.352-26.368-31.915-0.789-1.088-1.579-2.155-2.368-3.243-16.896-23.744-32.171-51.115-45.376-81.749-0.704-1.643-1.344-3.371-2.069-5.056-0.768-1.835-1.387-3.861-2.155-5.739-26.368 12.843-49.899 28.245-70.613 45.461 43.136 36.651 93.525 65.024 148.949 82.24zM205.611 680.341c25.237-21.589 54.165-40.704 86.699-56.299-0.576-1.749-1.173-3.477-1.749-5.248-10.261-32.427-18.475-67.2-24.277-103.957-0.747-4.629-1.301-9.365-1.963-14.037-1.963-13.973-3.563-28.16-4.821-42.624-0.469-5.376-0.96-10.709-1.344-16.171-0.811-12.032-0.981-24.384-1.365-36.672l-170.581-0c5.291 106.752 49.877 203.008 119.403 275.008zM86.208 362.667h170.581c0.384-12.267 0.555-24.64 1.365-36.672 0.384-5.461 0.875-10.795 1.344-16.171 1.259-14.464 2.859-28.672 4.821-42.624 0.661-4.715 1.237-9.408 1.963-14.059 5.803-36.736 14.016-71.509 24.277-103.936 0.555-1.771 1.152-3.52 1.749-5.269-32.533-15.552-61.483-34.688-86.699-56.299-69.525 72.021-114.112 168.277-119.403 275.029zM236.416 58.709c20.715 17.195 44.245 32.597 70.613 45.461 0.768-1.877 1.387-3.925 2.155-5.76 0.704-1.664 1.365-3.392 2.069-5.035 13.205-30.635 28.48-58.005 45.376-81.749 0.789-1.109 1.579-2.155 2.368-3.243 8.427-11.563 17.195-22.315 26.389-31.915-55.445 17.195-105.835 45.589-148.971 82.24zM490.667-40.512c-59.243 11.776-111.232 72.149-146.112 160.768 44.075 16.341 93.632 26.005 146.112 28.16l0-188.928zM490.667 191.040c-57.259-2.197-111.445-12.757-159.915-30.741-18.325 59.413-29.739 128.32-31.573 202.368h191.488v-171.627zM490.667 405.333h-191.488c1.835 74.069 13.248 142.955 31.573 202.368 48.469-18.005 102.656-28.544 159.915-30.784v-171.584zM490.667 619.584c-52.459 2.155-102.016 11.84-146.112 28.16 34.88 88.64 86.869 149.013 146.112 160.768v-188.928zM937.792 405.333h-170.581c-0.363 12.267-0.555 24.619-1.365 36.672-0.363 5.461-0.875 10.795-1.344 16.171-1.259 14.464-2.859 28.651-4.8 42.624-0.661 4.693-1.237 9.408-1.963 14.037-5.824 36.757-14.037 71.531-24.277 103.957-0.555 1.771-1.152 3.499-1.749 5.248 32.533 15.573 61.483 34.709 86.699 56.299 69.525-72 114.091-168.256 119.381-275.008zM787.584 709.291c-20.715-17.216-44.245-32.597-70.613-45.461-0.747 1.877-1.365 3.904-2.133 5.739-0.704 1.685-1.344 3.413-2.069 5.056-13.205 30.635-28.459 58.005-45.376 81.749-0.789 1.109-1.579 2.176-2.368 3.243-8.427 11.563-17.195 22.293-26.368 31.915 55.403-17.195 105.792-45.568 148.928-82.24zM533.333 808.512c59.243-11.776 111.232-72.149 146.112-160.768-44.075-16.341-93.632-26.005-146.112-28.16v188.928zM533.333 576.939c57.259 2.219 111.445 12.779 159.936 30.784 18.325-59.413 29.717-128.32 31.573-202.368h-191.509v171.584zM533.333 362.667h191.509c-1.856-74.069-13.248-142.955-31.573-202.368-48.491 18.005-102.677 28.544-159.936 30.741l0 171.627zM533.333-40.512v188.928c52.48-2.176 102.037-11.84 146.112-28.16-34.88-88.64-86.869-149.013-146.112-160.768zM638.656-23.552c9.195 9.6 17.941 20.352 26.368 31.915 0.789 1.088 1.579 2.155 2.368 3.243 16.917 23.744 32.171 51.115 45.376 81.749 0.725 1.643 1.365 3.371 2.069 5.035 0.768 1.835 1.387 3.883 2.133 5.76 26.368-12.864 49.92-28.267 70.613-45.461-43.136-36.629-93.504-65.024-148.928-82.24zM818.389 87.659c-25.237 21.611-54.165 40.725-86.699 56.299 0.597 1.749 1.195 3.499 1.749 5.269 10.24 32.448 18.475 67.2 24.277 103.936 0.725 4.651 1.301 9.365 1.963 14.059 1.963 13.952 3.563 28.16 4.8 42.624 0.469 5.376 0.981 10.709 1.344 16.171 0.811 12.011 1.003 24.405 1.365 36.672h170.581c-5.269-106.773-49.856-203.029-119.381-275.029z"  horiz-adv-x="1024" />
      
      <glyph glyph-name="zuoyezhidaoshu" unicode="&#58932;" d="M843.851852 395.851852h23.703704c33.185185 0 59.259259 26.074074 59.259259 59.259259v196.740741c0 33.185185-26.074074 59.259259-59.259259 59.259259h-194.370371c-33.185185 0-59.259259-26.074074-59.259259-59.259259v-194.370371c0-33.185185 26.074074-59.259259 59.259259-59.259259h80.592593c7.111111 0 11.851852 4.740741 11.851852 11.851852s-4.740741 11.851852-11.851852 11.851852h-80.592593c-21.333333 0-35.555556 16.592593-35.555555 35.555555v194.370371c0 21.333333 16.592593 35.555556 35.555555 35.555555h194.370371c21.333333 0 35.555556-16.592593 35.555555-35.555555v-142.222222c-2.37037 2.37037-7.111111 2.37037-11.851852 2.37037h-23.703703c-28.444444 0-52.148148-23.703704-52.148149-52.148148v-33.185185c0-18.962963 14.222222-30.814815 28.444445-30.814815z m-4.740741 61.629629c0 16.592593 14.222222 28.444444 30.814815 28.444445h23.703704c7.111111 0 11.851852-4.740741 11.851851-11.851852v-21.333333c0-21.333333-16.592593-35.555556-35.555555-35.555556h-23.703704c-2.37037 0-4.740741 2.37037-4.740741 4.740741v35.555555zM677.925926 618.666667h194.37037c7.111111 0 11.851852 4.740741 11.851852 11.851852s-4.740741 11.851852-11.851852 11.851851h-194.37037c-7.111111 0-11.851852-4.740741-11.851852-11.851851s4.740741-11.851852 11.851852-11.851852zM884.148148 559.407407c0 7.111111-4.740741 11.851852-11.851852 11.851852h-194.37037c-7.111111 0-11.851852-4.740741-11.851852-11.851852s4.740741-11.851852 11.851852-11.851851h194.37037c4.740741 0 11.851852 4.740741 11.851852 11.851851zM677.925926 497.777778c-7.111111 0-11.851852-4.740741-11.851852-11.851852s4.740741-11.851852 11.851852-11.851852h113.777778c7.111111 0 11.851852 4.740741 11.851852 11.851852s-4.740741 11.851852-11.851852 11.851852h-113.777778zM168.296296 668.444444c78.222222-18.962963 144.592593 40.296296 144.592593 111.407408C312.888889 843.851852 260.740741 896 199.111111 896 123.259259 896 66.37037 824.888889 87.703704 746.666667c9.481481-37.925926 42.666667-68.740741 80.592592-78.222223zM317.62963 507.259259c0 9.481481 7.111111 18.962963 18.962963 18.962963l210.962963 2.370371c9.481481 0 16.592593 4.740741 21.333333 11.851851l33.185185 61.62963c4.740741 9.481481 0 18.962963-11.851852 21.333333L338.962963 635.259259H215.703704l9.481481-16.592592-11.851852-23.703704 23.703704-175.407407c0-7.111111-2.37037-14.222222-7.111111-18.962963l-33.185185-33.185186v-2.37037l-2.370371 2.37037-2.37037-2.37037v2.37037l-33.185185 35.555556c-4.740741 4.740741-7.111111 11.851852-7.111111 18.962963l23.703703 175.407407-11.851851 23.703704 14.222222 14.222222H71.111111c-7.111111 0-14.222222-4.740741-16.592592-14.222222 0 0-59.259259-218.074074-52.148149-286.814815l2.370371-2.37037c14.222222-11.851852 56.888889-42.666667 56.888889-42.666667 9.481481-7.111111 14.222222-16.592593 11.851851-26.074074l-21.333333-367.407407c0-11.851852 9.481481-23.703704 21.333333-23.703704h64c11.851852 0 21.333333 9.481481 21.333334 21.333333l16.592592 324.740741h45.037037l21.333334-324.740741c0-11.851852 9.481481-18.962963 21.333333-18.962963h56.888889c11.851852 0 21.333333 9.481481 21.333333 21.333334L327.111111 279.703704l-9.481481 227.555555zM955.259259 874.666667H384c-18.962963 0-35.555556-16.592593-35.555556-35.555556s16.592593-35.555556 35.555556-35.555555h571.259259c16.592593 0 30.814815-14.222222 30.814815-30.814815V232.296296c0-16.592593-14.222222-30.814815-30.814815-30.814815H384c-18.962963 0-35.555556-16.592593-35.555556-35.555555s16.592593-35.555556 35.555556-35.555556h194.37037v-116.148148c0-18.962963 14.222222-33.185185 33.185186-33.185185s33.185185 14.222222 33.185185 33.185185v116.148148h310.518518c56.888889 0 101.925926 45.037037 101.925926 101.925926V772.740741c0 56.888889-45.037037 101.925926-101.925926 101.925926zM805.925926-40.296296H417.185185c-18.962963 0-35.555556-16.592593-35.555555-35.555556s16.592593-35.555556 35.555555-35.555555H805.925926c18.962963 0 35.555556 16.592593 35.555555 35.555555s-16.592593 35.555556-35.555555 35.555556z"  horiz-adv-x="1057" />
      
      <glyph glyph-name="zuoyequyu" unicode="&#58947;" d="M510.432 838.432c118.88 0 220.992-110.4 220.992-254.912 0-101.92-136.096-314.176-220.992-424.672-84.896 110.496-220.96 322.784-220.96 424.672-0.032 144.512 102.048 254.912 220.96 254.912z m0 42.432c-144.512 0-263.392-135.936-263.392-297.344 0-161.536 263.392-492.704 263.392-492.704s263.424 331.36 263.424 492.704c0 161.44-119.296 297.344-263.424 297.344m478.752-977.024H34.784c-17.184 0-34.016 17.184-34.016 34.016v509.76c0 17.024 16.832 34.016 34.016 34.016H170.56c16.992 0 34.016-16.992 34.016-34.016s-17.024-34.016-34.016-34.016H60.064v-450.112h895.296V413.568h-102.048c-17.024 0-33.856 17.024-33.856 34.016s16.8 34.016 33.856 34.016h135.904c17.024 0 34.016-16.992 34.016-34.016v-509.728c0-16.832-17.216-34.016-34.048-34.016M510.432 768.64a151.04 151.04 0 0 1-151.168-151.104 150.88 150.88 0 0 1 151.168-150.816 151.264 151.264 0 0 1 150.816 150.816c0 83.136-67.872 151.104-150.816 151.104z m0-261.248a110.752 110.752 0 0 0-111.2 111.008 110.72 110.72 0 0 0 111.2 111.008 110.656 110.656 0 0 0 110.848-111.008 111.136 111.136 0 0 0-110.848-111.008z"  horiz-adv-x="1024" />
      
      <glyph glyph-name="zuoye1" unicode="&#58933;" d="M845.2 138.7H416c-9.9 0-18 8.1-18 18v4c0 9.9 8.1 18 18 18h429.2c9.9 0 18-8.1 18-18v-4c0-9.9-8.1-18-18-18zM845.2 389.7H416c-9.9 0-18 8.1-18 18v4c0 9.9 8.1 18 18 18h429.2c9.9 0 18-8.1 18-18v-4c0-9.9-8.1-18-18-18zM916.8-78H346.2c-37.6 0-68.2 34.7-68.2 77.3V780.6c0 42.6 30.6 77.3 68.2 77.3h570.6c37.6 0 68.2-34.7 68.2-77.3v-781.3c0-42.6-30.6-77.3-68.2-77.3zM346.2 821.1c-19.7 0-35.7-18.2-35.7-40.5v-781.3c0-22.3 16-40.5 35.7-40.5h570.6c19.7 0 35.7 18.2 35.7 40.5V780.6c0 22.3-16 40.5-35.7 40.5H346.2zM129-68.2c-11 0-20 9-20 20V809c0 11 9 20 20 20s20-9 20-20v-857.2c0-11-9-20-20-20zM850.9 655.7h-4.1l-79.9 34.6-79.9-34.6h-4.1c-27.6 0-50 20.1-50 44.8V814.2c0 24.7 22.4 44.8 50 44.8h168c27.6 0 50-20.1 50-44.8v-113.7c0-24.7-22.5-44.8-50-44.8z m-84.1 78.2l87.4-37.9c4.3 0.9 6.7 3.5 6.7 4.5V814.2c0 1.2-3.5 4.8-10 4.8h-168c-6.5 0-10-3.6-10-4.8v-113.7c0-1 2.3-3.5 6.7-4.5l87.2 37.9z"  horiz-adv-x="1024" />
      
      <glyph glyph-name="biaoji1" unicode="&#58978;" d="M301.4 252.5L98 455.8v0.1l54.1 54.1c16.5 16.5 41.2 21.4 62.7 12.5l136.9-56.7h0.1L616 669.5v0.1l-70.7 70.7v0.1l40.6 40.6c22.5 22.5 58.9 22.5 81.4 0l40.6-40.6 0.2 0.2 162.6-162.7-0.2-0.2 40.6-40.6c22.5-22.5 22.5-58.9 0-81.4l-40.6-40.6h-0.1l-70.8 70.7h-0.1L595.8 221.7v-0.1l56.7-137c8.9-21.5 4-46.2-12.5-62.7l-54.1-54.1h-0.1L382.7 171.1h-0.1l-203-203H98.2v81.3l203.1 203.1h0.1z"  horiz-adv-x="1024" />
      
      <glyph glyph-name="biaoji2" unicode="&#58948;" d="M890.326108 807.017379H514.599492L138.772896 895.400117c-0.09998 0-0.199961 0-0.299941 0.099981-0.199961 0-0.399922 0.09998-0.699864 0.09998-0.09998 0-0.299941 0.09998-0.399922 0.099981-0.299941 0-0.599883 0.09998-0.899824 0.09998h-0.299941c-0.399922 0-0.699863 0.09998-1.099786 0.099981H133.673892c-1.599688 0-3.299356-0.199961-4.799063-0.499903h-0.09998c-0.299941-0.09998-0.699863-0.199961-0.999805-0.299941-0.09998 0-0.199961-0.09998-0.299941-0.099981-0.299941-0.09998-0.499902-0.199961-0.799844-0.199961-0.199961-0.09998-0.299941-0.09998-0.499903-0.199961s-0.299941-0.09998-0.499902-0.199961-0.499902-0.199961-0.699863-0.299941h-0.099981c-1.799649-0.799844-3.499317-1.799649-5.099004-2.999414-3.199375-2.599492-5.698887-5.898848-7.098613-9.698106v-0.09998c-0.09998-0.199961-0.199961-0.499902-0.199961-0.699864-0.09998-0.199961-0.09998-0.299941-0.099981-0.499902-0.09998-0.199961-0.09998-0.399922-0.199961-0.599883-0.09998-0.199961-0.09998-0.399922-0.199961-0.599883 0-0.199961-0.09998-0.299941-0.09998-0.499902-0.09998-0.299941-0.09998-0.499902-0.199961-0.799844 0-0.09998 0-0.199961-0.099981-0.399922 0-0.299941-0.09998-0.599883-0.09998-0.899824v-0.299942c0-0.399922-0.09998-0.699863-0.099981-1.099785v-980.608475c0-12.197618 9.998047-22.295645 22.295646-22.295645s22.295645 9.998047 22.295645 22.295645V378.301113L507.000976 295.717243c1.699668-0.399922 3.399336-0.599883 5.099004-0.599883h378.326109c12.297598 0 22.295645 9.998047 22.295645 22.295645V784.721734C912.621754 797.019332 902.623706 807.017379 890.326108 807.017379z m-22.195665-467.408709H514.599492l-358.729935 84.383519V845.609842L506.900996 763.025971c1.699668-0.399922 3.399336-0.599883 5.099004-0.599882h356.130443v-422.817419z"  horiz-adv-x="1024" />
      
      <glyph glyph-name="24gl-mapMarker" unicode="&#60216;" d="M512-85.33333300000004c-39.333333 0-83.806667 26.326667-114.206667 48.406666-42.473333 30.86-85.333333 73.2-123.92 122.433334-42.44 54.153333-77.933333 114.82-102.626666 175.446666C142.546667 331.38 128 401.493333 128 469.333333a384 384 0 1 0 768 0c0-67.84-14.546667-137.953333-43.246667-208.38-24.666667-60.626667-60.186667-121.293333-102.626666-175.446666-38.593333-49.233333-81.446667-91.573333-123.92-122.433334C595.806667-59.00666699999999 551.333333-85.33333300000004 512-85.33333300000004z m0 896c-188.213333 0-341.333333-153.12-341.333333-341.333334 0-159.206667 85.706667-292.326667 136.793333-357.506666 36.18-46.166667 76.093333-85.666667 115.413333-114.233334C458.086667-28 490.573333-42.66666699999996 512-42.66666699999996s53.913333 14.666667 89.126667 40.26c39.333333 28.566667 79.233333 68.066667 115.413333 114.233334C767.626667 177.006667 853.333333 310.126667 853.333333 469.333333c0 188.213333-153.12 341.333333-341.333333 341.333334z m170.666667-341.333334c0-94.253333-76.413333-170.666667-170.666667-170.666666S341.333333 375.08000000000004 341.333333 469.333333s76.413333 170.666667 170.666667 170.666667 170.666667-76.413333 170.666667-170.666667zM512 597.333333c-70.666667 0-128-57.333333-128-128s57.333333-128 128-128 128 57.333333 128 128-57.333333 128-128 128z"  horiz-adv-x="1024" />
      
      <glyph glyph-name="jianjie" unicode="&#58949;" d="M907.68254-128h-791.36508c-40.126984 0-72.634921 32.507937-72.63492 72.126984V823.873016c0 39.619048 32.507937 72.126984 72.63492 72.126984H720.253968c14.222222 0 25.396825-11.174603 25.396826-25.396825s-11.174603-25.396825-25.396826-25.396826h-603.936508c-12.190476 0-21.84127-9.650794-21.84127-21.333333v-879.746032c0-11.68254 9.650794-21.333333 21.84127-21.333333h791.36508c12.190476 0 21.84127 9.650794 21.84127 21.333333V618.15873c0 14.222222 11.174603 25.396825 25.396825 25.396826s25.396825-11.174603 25.396825-25.396826v-673.523809c0-40.126984-32.507937-72.634921-72.63492-72.634921zM766.47619 421.079365c-14.222222 0-25.396825 11.174603-25.396825 25.396825v213.333334c0 2.539683-1.52381 3.555556-1.523809 3.555555h-218.920635c-14.222222 0-25.396825 11.174603-25.396826 25.396826s11.174603 25.396825 25.396826 25.396825h218.920635c28.952381 0 52.31746-24.380952 52.31746-54.349206v-213.333334c0-14.222222-11.174603-25.396825-25.396826-25.396825zM513.015873 428.190476h-208.253968c-14.222222 0-25.396825 11.174603-25.396826 25.396826s11.174603 25.396825 25.396826 25.396825h208.253968c14.222222 0 25.396825-11.174603 25.396825-25.396825s-11.68254-25.396825-25.396825-25.396826zM751.238095 54.34920599999998h-461.714285c-14.222222 0-25.396825 11.174603-25.396826 25.396826s11.174603 25.396825 25.396826 25.396825h461.714285c14.222222 0 25.396825-11.174603 25.396826-25.396825s-11.68254-25.396825-25.396826-25.396826z"  horiz-adv-x="1024" />
      
      <glyph glyph-name="-yuanliaozuoye" unicode="&#58950;" d="M408.3-29.67c-133.18 0-244.03 39.91-252.4 43a34.41 34.41 0 0 0-21.55 24.31c-3.3 13.85-78.19 341.35 142.39 553.96C491.49 798.6 953.79 857.88 973.37 860.3c9.82 1.21 19.72-1.86 27.11-8.46a34.393 34.393 0 0 0 11.53-25.95c-0.13-17.84-6.31-440.04-264.82-721.81C650.93-0.8 521.54-29.67 408.3-29.67zM197.75 72.06c72.32-21.9 344.51-89.5 498.71 78.56 195.76 213.37 236.28 524.87 244.6 635.24-116.63-19.23-453.45-86.58-616.56-243.81C159.57 383.09 186.23 140.4 197.75 72.06zM46.43-92.57c-10.36 0-20.6 4.66-27.37 13.52-11.54 15.11-8.65 36.7 6.45 48.24C513.48 341.91 717.1 603.75 719.09 606.35c11.59 15.06 33.2 17.89 48.25 6.33 15.08-11.57 17.92-33.16 6.36-48.24-8.36-10.88-210.18-270.93-706.4-649.94a34.302 34.302 0 0 0-20.87-7.07z"  horiz-adv-x="1024" />
      
      <glyph glyph-name="biaoji3" unicode="&#58979;" d="M882.043614 245.233645c19.140187 0 31.900312 12.760125 31.900311 31.900311V832.199377c0 31.900312-25.520249 57.420561-57.420561 57.420561H173.856698c-31.900312 6.380062-57.420561-25.520249-57.420561-57.420561v-899.588785c0-19.140187 12.760125-44.660436 31.900312-51.040499 6.380062-6.380062 12.760125-6.380062 25.520249-6.380062s19.140187 0 25.520249 6.380062L512 60.211838l312.623053-178.641745c19.140187-12.760125 38.280374-12.760125 57.420561 0 19.140187 12.760125 31.900312 31.900312 31.900311 51.040499v165.88162c0 19.140187-12.760125 31.900312-31.900311 31.900311s-31.900312-12.760125-31.900312-31.900311V-61.009346l-306.24299 178.641745c-19.140187 12.760125-38.280374 12.760125-57.420561 0L180.23676-61.009346V832.199377h484.884735v-229.682243c0-19.140187 19.140187-38.280374 38.280374-38.280374s38.280374 19.140187 38.280374 38.280374V832.199377h108.461059v-555.065421c0-19.140187 12.760125-31.900312 31.900312-31.900311z"  horiz-adv-x="1024" />
      
      </font>
</defs>
</svg>
